<?xml version="1.0" encoding="utf-8"?>
<!-- Generator: Adobe Illustrator 23.0.0, SVG Export Plug-In . SVG Version: 6.00 Build 0)  -->
<svg version="1.1" id="Capa_1" xmlns="http://www.w3.org/2000/svg" xmlns:xlink="http://www.w3.org/1999/xlink" x="0px" y="0px"
	 viewBox="0 0 1080 1920" style="enable-background:new 0 0 1080 1920;" xml:space="preserve">
<style type="text/css">
	.st0{fill:#3D4763;}
	.st1{opacity:0.15;}
	.st2{opacity:0.4;}
	.st3{clip-path:url(#SVGID_2_);}
	.st4{fill:#5A576F;}
	.st5{opacity:0.1;}
	.st6{opacity:0.28;}
	.st7{fill:#F8C745;}
	.st8{opacity:0.2;}
	.st9{fill:#E66485;}
	.st10{fill:#343B51;}
	.st11{fill:#F9C745;stroke:#313236;stroke-width:2;stroke-miterlimit:10;}
	.st12{fill:url(#SVGID_5_);stroke:#313236;stroke-width:2;stroke-miterlimit:10;}
	.st13{fill:url(#SVGID_6_);}
</style>
<rect class="st0" width="1080" height="1920"/>
<g class="st1">
	<g class="st2">
		<defs>
			<polygon id="SVGID_1_" class="st2" points="0,1920 0,0 1085.9,4.3 1085.9,1928.7 			"/>
		</defs>
		<clipPath id="SVGID_2_">
			<use xlink:href="#SVGID_1_"  style="overflow:visible;"/>
		</clipPath>
		<g class="st3">
			<g>
				<path class="st4" d="M1102.7,1915.9l-50.4,107.9l4.3,2l50.4-107.8l0.4,0.2l2.1-4.3l-0.4-0.2l23.7-50.7l124.4,57.1l-10.5,23.2
					l4.3,2l10.5-23.2l2.1,1l2-4.3l-2.1-1l20.5-45.1l179.2,82.6l6-13l-38-17.5l3.4-3c-0.8-0.9-78-87.6-109.2-128.2
					c-0.3-0.4-0.6-0.9-1-1.3l61.8-41.5c29.9,59.9,67.4,107.8,68,108.5l0.3,0.4l46.3,24.4l2.2-4.2l-45.4-23.9
					c-5.9-7.6-93.7-121.7-102.2-216c-1.6-17.5-5-34.7-10.3-51.2c-16.6-51.9-47.2-85-59.7-96.9c11.9-11,21.9-19,26.8-20.5
					c2.7-0.8,6.9-0.8,11.2-0.7c9.8,0.2,23.1,0.4,32.4-10.7c12.8-15.2,13.5-47.1,2.6-103.2c-1.2-6.1-2.2-12-2.9-17.5
					c57,4.4,134.2,49.9,135.1,50.4l7.3-12.3c-3.9-2.3-82.9-48.8-143.9-52.5c-4.9-70.3,31-83.9,58.2-94c8.4-3.2,15.7-5.9,21.2-9.9
					c13.7-10,35.1-48.1,52.4-82l17.7,9.5l6.8-12.6l-18.1-9.7c10.8-21.8,19.1-39.9,21.2-44.6l-13-5.9c-4.7,10.4-12.2,26.3-20.8,43.7
					l-78.2-42l36.4-72.4l47.2,19.8l1.8-4.4l-46.9-19.7l31-61.8l22.3,9.6l1.9-4.4l-22-9.5l3.2-6.3l-4.3-2.1l-3.3,6.6L1289.3,855
					l37.5-76.1l52.5,24.2l-10.2,24.7l43.3,34.1l72.8,23.4l1.5-4.5l-72-23.1l-39.8-31.4l8.7-21.2l107.7,49.5l6-13L1028,625.8
					l11.5-39.3l352.3,146.8l0.4,4.4l110.7,76.5l8.1-11.8l-105.2-72.7l-7.5-82.9l102.4-211.7l-12.9-6.2l-6.8,14l-172.2-121.7
					l77.4-178.6l132.2,77.9l2.4-4.1l-132.7-78.2l55.7-128.4l-4.4-1.9l-55.4,127.8l-37.9-22.4l47.1-103.5l-4.3-2L1342,111l-94-55.4
					l30.5-66.7l-13-5.9l-107.3,234.9L1044.8,166l81.7-179.1l-4.3-2L1060,121c-8.3-3.8-40-18.5-89.1-40.4l53.7-125.6l-4.4-1.9
					L966.5,78.7C951.8,72.2,935.6,65,918,57.4c-9.9-4.3-19.4-7.2-28.4-8.9L937-35.1l-4.1-2.3l-48.3,85.2
					c-27.7-3.9-51.3,3.1-69.9,13.2L712,13.9l-2,4.3l99.6,45.5C787.7,77,773.8,93.8,769.8,99l-93.5-40.8l55.9-126.1l-4.4-1.9
					L672,56.3l-52.3-22.8l21.6-51.6L637-20l-21.6,51.5l-26.8-11.7l-1.9,4.4L613.5,36l-42.3,100.8l-64.4-27.9L550.4-0.9l-13.3-5.3
					l-43.4,109.4L310.5,23.9l30.9-76l-4.4-1.8L306.2,22L255.4,0l-5.7,13.1l51.1,22.1l-12.7,31.2l-50.4-59l-3.6,3.1l52,60.9
					l-54.6,134.1L159.8,179l68-207.4l-4.5-1.5l-68,207.2l-45.1-16.7L215.5-157l-4.5-1.5L105.7,159l-46-17L131-68.1l-4.5-1.5
					L55.2,140.3l-41.2-15.2L73.8-35.5l-4.5-1.7L9.6,123.4L-37.7,106L4.2-13.3l-4.5-1.6l-41.8,119.2l-49-18.1L-50-21.2l-4.4-1.7
					L-95.6,84.5L-146,65.9l62.6-146.5l-4.4-1.9l-62.7,146.7l-50.6-18.7l30.2-89.1l-13.5-4.6l-30,88.7l-56.1-20.7l-1.7,4.5l56.2,20.8
					l-32.2,95L-345-0.7l-11.8,8.1l102.3,148.8l-25.6,46.1L-461.9,25.1l-3.3,3.4l182.8,178.1l-56.6,102l-93.6-31.2l-1.5,4.5l93.1,31
					l-44.1,113.2l-86.5-40.3l-6,13l86.9,40.5l-28.3,60.9l-13.6-4.1l-1.4,4.6l13,3.9l-18.8,40.4l13,6l19.6-42.2l98.7,29.9l-5,14.9
					l4.5,1.5l3.1-15l49.8,15.6v41.5l-178.5-45.1l-0.2,4.6l86,21.4l6.6,57.3l-98.9-26.7l-1.2,4.6l100.1,27l-14.5,51.6l-102.8-27.2
					l-1.2,4.6l140.2,37.1l-13,48.1l-91.5-21.8l-1.1,4.6l91.4,21.7l-13.3,49.2l-66.3-19.7l-1.4,4.6l66.5,19.8l-13.6,50.5l-69.8-17.5
					l-1.2,4.6l141.4,35.5l-13.4,47.5L-414.5,903l-1.3,4.6l36.6,10.2l-12.6,51.5l-53.9-15.7l-4,13.7l55.6,16.2l27.2,80.3l-45.4,18.3
					l1.8,4.4l45.2-18.2l40.8,120.2l-50.8,19.3l-34.4-32.3l-3.3,3.5l32.7,30.7l-35.7,13.5l1.7,4.5l37.9-14.4l83.1,78l-29,37.5
					l-92.5-70.4l-8.7,11.4l92.4,70.3l-48.6,63l-38.1-28.2l-2.8,3.8l38,28.1l-26.5,34.4l3.8,2.9l26.6-34.5l99.2,73.5l-53.2,65.7
					l-91.6-66.4l-2.8,3.9l47.4,34.4l-41.5,60.7l3.9,2.7l41.4-60.6l40.1,29.1l-117.5,145.2l11.1,9l75.3-93l36.4,24.2l-47.3,69.6
					l-37.9,7.8l1,4.7l158.3-32.7l44.8,29.8l6.4,62.5l-214.6,54.9l1.2,4.6l213.9-54.7l6.3,60.9l-221.2,46.4l1,4.7l220.7-46.3
					l5.9,56.9l-66.9,35.1l6.6,12.7l61.8-32.4l6.6,63.6l4.7-0.5l-6.7-65.5l205.1-107.6l77.5,99.4l3.8-2.9L23,1809.6l51.2-49.5
					l116.9,167.6l3.9-2.7L76,1756.7l51.8-51.7v85.7L260.6,1953l12-9l-49.2-61.4l88.3-6.6l4.6,89.3l4.8-0.2l-4.5-89.4l146.7-11
					l9.2,136.4l4.7-0.3l-9.2-136.5l75.6-5.7l37.6,55l-0.7,20.3l14.3,0.5l2.8-79.8l85.5-3.4l66.1,41.3l2.4,18.2l4.7-0.6l-1.9-14.3
					l37.9,23.7l-2.5,5.9l4.4,1.9l2.2-5.2l22.7,14.2l2.5-4l-23.4-14.6l30.1-71.4l129,55.7l-0.8,1.9l4.4,1.9l0.8-1.9l75.2,32.5
					l1.9-4.4l-75.2-32.5l18.2-41.3L1102.7,1915.9z M983.9,1853.9l9.4-21.2l123.2,53.9l-11.7,25L983.9,1853.9z M825.6,1840.8
					l-78.1,3.1l-6.6-49.6l104.3,0.2L825.6,1840.8z M583.4,1850.9l-26.4,2l-69.7-102.1l27.8-4.3l70.4,43.9L583.4,1850.9z
					 M-214.7,1640.5l35.9,26l-32.5,6.7L-214.7,1640.5z M-216,1674.3l-39.4,8.2l-68.5-45.6l34.4-50.6l69.7,50.6L-216,1674.3z
					 M-215.3,1634.2l-11.5-111.9l110.7,82l-47.1,59l-9.3,1.9L-215.3,1634.2z M-302,1042.9l46.8-18.8l26.2,7.7l37.5,106.4l-65.8,25
					L-302,1042.9z M-266.5,811.2l28.6,2.7l53.7,48.5l-7.5,30.9l-94.8-11.2L-266.5,811.2z M-241.4,722.2l23.7,33.3l-20.8,53.7
					l-26.7-2.5L-241.4,722.2z M-240.8,624.4L-37.4,688l-18.2,64.9L-159.4,722l-22.8-28.7l-19.1-3.5l-0.6-0.9l-35.1,16.8l-3.9-3.5
					V624.4z M1252,314.8l2.1,0.9l9.4-20.7l39.4,27.9l-26.7,61.5l-148.8-65.1l22.4-49.1L1252,314.8z M1151.9,265.9l17.2-37.6
					l90.5,63.9l-7.9,17.3L1151.9,265.9z M1352.6,655.2l0,0.1l-158.9-68.5l19.2-44.1l138.5,60.1l14.1,23.5l7.2,18.1l-18.4,13.3h-1.6
					V655.2z M1202.3,749.2l9.9-22.9l18.9,8.7l-11.6,21.8l3.3,6.6l-26.4-11.9L1202.3,749.2z M1198.7,745.4l-22.6,8.8l-47.5-21
					l16.4-37.8l62.8,28.9L1198.7,745.4z M1124.3,731.3l-115.5-51.2l17.2-39.4l114.7,52.7L1124.3,731.3z M1074.7,730.2l13.2,19.1
					l24.7,8.9l-7.5,17.3l-116-50.1l8.5-19.5l35.7,15.1l1.9-4.4l-35.7-15l7.4-17l115.5,51.2l-7.9,18.2l-23.6-8.5l-12.3-17.8
					L1074.7,730.2z M1304.8,993l-17.7,22.8l-50.5-27.1l23.5-58.5l60.4,25.4L1304.8,993z M1164.3,1383.4l-19.9-34.6l-4.1,2.4l19.6,34
					c-19,7.3-34.2,13.2-42,16.3L1104,1379l20.5-60.4l73.4-3.1l-22.2,63.6C1171.8,1380.5,1168,1381.9,1164.3,1383.4z M1286,1731.4
					l-73.1-32.6l66.7-27.3C1280.2,1688.7,1281.9,1710,1286,1731.4z M1312,1799.3l-1.8,4.1l-124.4-53.8l22.3-47.7l79.1,35.3
					C1291.9,1759.8,1299.6,1782.1,1312,1799.3z M1315.2,1803.7c0.7,0.9,1.5,1.9,2.2,2.9l-2.9-1.3L1315.2,1803.7z M460.3,1749.4
					l-1-14.1l9.3,13.6L460.3,1749.4z M461.5,1713l47.5,29.6l-24.6,3.8L461.5,1713z M454.8,1703.2l-9.1-13.3l143.4-2.5l-1.5,43
					l-71.4,11.1L454.8,1703.2z M-24.3,1495v-1.7l152,3v62H57.5L-24.3,1495z M-129.5,1475.5l47.3-20.5l52.7,40.8l-27.7,34.7
					L-129.5,1475.5z M-77.3,1452.8l52.4-22.7l76.2,59.8l-73.9-1.4l-1.2,0l-2.9,3.6L-77.3,1452.8z M-108.7,1295l25.7,21.6l3.1-3.6
					l-25.8-21.6l35.1-43.3l157.9,128.3l-111.4,48.3l-115.9-90.9L-108.7,1295z M-94.1,904.3l20-68.8l98.9,31.9L6,927.1L2.4,926
					l-95.7-20.6L-94.1,904.3z M-180.4,859.4l-6-5.4l23.3-22l46.2,64.8l-16.4-4.8l-10.1-24.8L-180.4,859.4z M-234.1,811l19.7-50.9
					l29.9,42l-29.4,27.2L-234.1,811z M-163.8,723.6l-10.9,8l-23-36.3l13.1,2.4L-163.8,723.6z M47.5,709.3l16-57.9l27.1,8.2
					l-18.2,57.6L47.5,709.3z M95.2,660.9l134.3,40.7l-19,59l-133.5-42L95.2,660.9z M7.7,560.5l40-75.5l33.4,14.8l-19.7,75.6
					l-19.7-5.7L7.7,560.5z M-197.2,370.9l38.9-43.3l73.3,71.5l-9.1,17.6L-197.2,370.9z M-59.8,350.6l-22.9,44.1l-72.4-70.6l32.3-36
					L-59.8,350.6z M387.1,371.9l-39-15.1l36.7-89.5l38.2,14.1L387.1,371.9z M876.2,624l-110.9-74l7.1-16l122.9,46.8L876.2,624z
					 M1257.5,924l-75.7-31.8l9.6-23.4l76.1,28.7L1257.5,924z M1164.1,1186.7l-185-97.7l1.2-3.3l-3.5-3.1l37-85.2l183.7,90.9
					L1164.1,1186.7z M1068.4,1320.9l51-2.2l-18.6,54.9L1068.4,1320.9z M1065.6,1316.3l-5-8.2l-0.4-0.7l-0.6-0.6l33.6-68.9l46,22.5
					l-18.1,53.5L1065.6,1316.3z M1080.5,1412.6l8.8,67l-82.2,12.5l-11.6-91.5L1080.5,1412.6z M1203.6,1699.9l-22.3,47.7l-126.4-54.7
					l2.2-4.9l-3.6-6.4l68-21.1l0.9,3.2L1203.6,1699.9z M850.2,1729.4l-117.6,2.8l-6.3-47.1l125.6-2.2L850.2,1729.4z M603.4,1687.2
					l118.1-2l6.3,47.1l-126.1,3L603.4,1687.2z M353.5,1554.9l-37.7-55.2l51.2,1l1,54L353.5,1554.9z M368.2,1559.6l0.3,17.3
					l-11.7-17.2L368.2,1559.6z M90.6,1379.3l37.2,1v55.8l-90.6-33.9L90.6,1379.3z M-154.3,1119l105.5,79.3l-29.9,37l-101.6-82.5
					L-154.3,1119z M-61.2,791.4L39,822.6l-12.7,40.2l-99-31.9L-61.2,791.4z M43.6,824.1l74.5,23.2l-13.2,40.9l-74-23.9L43.6,824.1z
					 M113,508.8l18.4-45l88.4,48l18.9,52.9L113,508.8z M436.9,406.2l45.5,17.3l-47.8,121.1l-44.7,14.6l-30.2-79.8l35.4-89.2
					l37.3,14.2L386.9,505l4.3,2L436.9,406.2z M503.8,369.1l-16.2,41.1l-44.8-17.1l27.2-60.1L503.8,369.1z M664,477.4l-56.2-68
					l29.1,0.9l62.4,27.9L681.4,484L664,477.4z M675.6,499.5l-2.1,6.1H560.1l-0.2-1.3l-119.4,38.8l46.3-117.7l186.6,71.2L675.6,499.5
					z M824.1,742l-44.5-18.7l36.5-82.1L855,672L824.1,742z M1076.5,853.1l99.2,41.6l-21.1,51.2l-96.6-50.1L1076.5,853.1z
					 M1011.4,991l-113.2-57.4l30.4-69.7l119.3,43L1011.4,991z M1121.1,1169.4l-30.3,62.1l-139-68.1l25.5-69.9L1121.1,1169.4z
					 M1019.2,1625.1c-1.8,0.5-3.7,1.1-5.5,1.7l-150.9-40.9l-2-1.2l26.6-79.5l11.7,7.5l0.8,0.5l103.2-15.7L1019.2,1625.1z
					 M37.6,1114.2l24,36l-41.1,53l-54.4-0.6L37.6,1114.2z M186.3,851.1l54,17L227.4,910L172.1,895L186.3,851.1z M392.7,687.5
					l20.9,6.7c1.8,1.6,5.8,5.3,11.2,10.2l-39.2,111.2l-31.5-9.9L392.7,687.5z M292.5,641.8l22.6-60.2l30.1,3.5v24.3l-18.6,42.5
					L292.5,641.8z M332.1,653.4l19.8-42.9v-26.3l24.9-18.2l21.8,57.1l-15.3,46.6L332.1,653.4z M705.5,787.3l3.2,54.2l2.4-0.1
					l-1.1,2.1l56.6,28.7l-9.8,22.3L591.5,750.9L705.5,787.3z M808.1,1081.9l-9.1,26.3l-95.3-30.9l14.8-45.7l49.8,13.5L808.1,1081.9z
					 M750.9,1411.9l-66.7-42.8l-7.9-59.4l112.3,35.8l11.5,4L750.9,1411.9z M883.3,1502.5l-26.7,79.6l-72.2-43.9l49.9-67.2
					L883.3,1502.5z M780.3,1535.8l-73.5-44.7l53.3-67.6l70.2,45L780.3,1535.8z M698.7,1478.2L685,1375.3l62.9,40.4L698.7,1478.2z
					 M535.8,1392.9l-10.1,47.5l-155-1.3L370,1401c-0.1-5.1-0.4-10-1-14.7l162.7,4.1L535.8,1392.9z M540.2,1395.5l48.8,29.6
					l-58.2,14.4L540.2,1395.5z M541.2,1390.6l4.7-22.2l73.9,49.1l-24.4,6.1L541.2,1390.6z M547,1363.4l14.3-67.3l118.4,75.9
					l11.6,87.2L547,1363.4z M235,1168.9l95,30.3l-18,56.4l-103.6-5.3L235,1168.9z M143.9,1246.5l39.2-92.6l38.3,11.9l-26.4,80.8
					H143.9z M101.6,1113.8l21.8-67.6l124.1,38.6l-5,15.3l-106.2-24.5l-8.6,46.1L101.6,1113.8z M390,817L428.5,708
					c10.3,9.7,24.2,23,37.2,36.7l-27.3,87.6L390,817z M563.5,637.8l-30.8,79.4l-52.8-16.8l35.3-82.8L563.5,637.8z M582.9,748.2
					l-0.8,0.9l172.6,150l-2.9,6.5L703,965.3l-70.5-65.1l55.9-57.2l-3.4-3.3l-56,57.3c-12.9-12-101.1-94.2-121.2-124.3
					c-13.8-20.6-41.8-48.9-62.2-68.3L582.9,748.2z M722.7,1003l-7.4,22.8l-124.7-33.7l27.1-86.1c1.7,1.6,2.8,2.6,3.1,2.9L722.7,1003
					z M726.5,1006.6l34.1,31.5l-40.8-11L726.5,1006.6z M706.3,1149.5l-11.2,36.9l19.6,12.2l-8.4,23.7l-43.5-13.5l-0.5-3.5l20.4-63.1
					L706.3,1149.5z M657.6,1204.3l-0.2,0.5l0.3,2.4L534.9,1169l20.9-66.2l122.3,38L657.6,1204.3z M562.4,1291.1l3.7-16.5l105.1,33.5
					l7.7,57.7L562.4,1291.1z M569.3,1260.6l15.9-71l73.2,22.8l10.7,80.1L569.3,1260.6z M239.4,1155.3l21.7-66.4l142,44.1l-22,67.5
					L239.4,1155.3z M220,949.9l5.4-17.5l14,4.6l-5.4,17.2L220,949.9z M238.6,955.6l5.3-17.1l46.5,15.3l-5.3,16.1L238.6,955.6z
					 M298.5,929.1l-47.6-12.9l12.7-40.9l47.6,15L298.5,929.1z M362.7,909.4l9.8,30.7l-15.3,3.4l-2.3-3.1l-14.7-20.9l10.9-11.7
					L362.7,909.4z M388.4,974.3l-9.9-31.1l21.9-11.6l23.7,5.7v18l-1-0.8L388.4,974.3z M577.6,1017.5l-33.3-15l-6.7-0.4l23.4-66.4
					l38.6,12.1L577.6,1017.5z M338.1,1030.2l8.5-22.5l13.1-8.8l38.3,10l-14.4,35.5L338.1,1030.2z M383.8,976.8l-8.6,5.8l-1.8-17
					l-13.2-17.8l13.6-3l10.2,31.9L383.8,976.8z M368.9,967.3l1.9,18.3l-24.8,16.8l-16-5.9l-13.7-24.5v-11.1l34.5-16L368.9,967.3z
					 M388.1,1045.7l14.5-35.7l37.5,9.8l-12.5,38.2L388.1,1045.7z M444.7,1021.2l70.3,22.4c0.9,2.4,1.8,4.8,2.5,6.9
					c5.1,15.8-12.4,27.7-16.5,30.2l-68.7-21.3L444.7,1021.2z M551.2,1101.4l-20.9,66.2L409.2,1130l21.5-66L551.2,1101.4z
					 M506.8,1082.6c7.3-5.2,20.4-17.3,15.2-33.5c-0.5-1.4-1-3-1.6-4.5c7.9,0.7,25,1.8,30.3-1.4c3.7-2.2,13.7-2.8,19.8-2.9
					l-17.8,56.7L506.8,1082.6z M572,1035.4c-5,0-18.3,0.4-23.7,3.6c-3.7,2.2-19.8,1.6-29.8,0.6c-1.4-3.5-2.9-7.1-4.6-10.7
					c3-1.1,7.9-3.2,11.2-6.4c4-3.9,2.7-11.8,1.4-16.4l16.6,1.1l33,14.9L572,1035.4z M506.7,1004l0.7,0.9l14.2,0.9
					c1.5,4.7,2.4,11.2,0.3,13.3c-2.8,2.7-7.3,4.6-9.9,5.5c-6.8-14.5-13.9-27.6-14.4-28.4l-0.4-0.7l-11-5.4l1.7-10.3
					C492.5,985.5,500.9,996.5,506.7,1004z M556.5,934.2l-23.7,67.5l-22.9-1.5c-6.7-8.8-16.9-21.9-20.6-26.4l28.1-52L556.5,934.2z
					 M483.7,975.9l-2.7,16.9l12.8,6.3c2,3.7,11.9,22.3,18.9,38.8l-66.4-21.2l14.4-44.2C470,973.7,479.8,975.1,483.7,975.9z
					 M441.6,1015.3l-76.7-20.1l21.4-14.5l38.4-21l31.4,11.5L441.6,1015.3z M297,933.7l-5.1,15.6L245.4,934l4.1-13.1L297,933.7z
					 M317.2,918l18.6,3.4l12.2,19.5l-36.4,16.9V973l15,27.1l14.9,5.8l-8.3,22.9l-47.6-14.8L317.2,918z M426.2,1062.5l-21.5,66
					l-142-44.1l21.6-65.9L426.2,1062.5z M385.7,1202l22-67.5l121.2,37.7l-21.6,68.7L385.7,1202z M511.9,1242.3l21.6-68.7l47.1,14.6
					l-15.9,70.9L511.9,1242.3z M557.2,1098.2l18.1-57.5l122.4,39.6l-18.1,55.8L557.2,1098.2z M576.7,1036.2l12.4-39.5l124.7,33.7
					l-14.7,45.5L576.7,1036.2z M443,833.7l26.5-85.1c10.6,11.3,20.2,22.6,26.5,32c3.6,5.4,9.1,12.2,15.8,19.9l-16.2,49.7L443,833.7z
					 M515.4,804.6c18.7,20.8,44.9,46.7,66.5,67.6l-10.1,2l-71.8-22.6L515.4,804.6z M571.6,879.2l14.5-2.9
					c11.5,11.1,21.5,20.4,27.7,26.2L601,943.2l-118.7-37.3l16.2-49.7L571.6,879.2z M512.7,920.5l-27.5,50.9c-2.9-0.7-9.2-1.7-23-3.5
					l18.7-57.4L512.7,920.5z M457.5,967.7l-26.9-8.9H426v-25.2l-27.7-7l-22.6,12l-9.2-30.9l21-26.5l88.7,28.3L457.5,967.7z
					 M383,879.7l-19.5,25l-14.2-2l-13.1,13.9l-17.6-3.2l16-48.9L383,879.7z M312.7,885.8l-47.7-15l8-25.6l48,15.1L312.7,885.8z
					 M268.4,843.8l-8,25.6l-14.2-4.5l7.9-25.7L268.4,843.8z M259,874l-12.8,41.1l-14.3-3.9l12.8-41.7L259,874z M244.8,919.6l-4,12.9
					l-14-4.6l3.7-12.1L244.8,919.6z M222.3,926.4l-26.4-8.7l2.9-10.5l27.2,7.3L222.3,926.4z M220.9,930.9l-5.4,17.6l-55.2-16.8
					l6-18.7L220.9,930.9z M283.7,974.4l-11.6,35.4l-124.4-38.6l11.2-34.8L283.7,974.4z M270.6,1014.2l-21.6,65.9l-124.1-38.6
					l21.3-66L270.6,1014.2z M132.3,1123l3.2-17.1l54.3,19.1l-5.8,13.5L132.3,1123z M196.2,1122.2l-59.8-21l3.7-20l100.9,23.3
					l-15.2,46.5l-37.1-11.2L196.2,1122.2z M316.9,1255.9l17.6-55.2l43.3,13.8l-9.2,44.1L316.9,1255.9z M382.4,1215.9l179.2,57.2
					l-3.4,15.2l-33.4-21.4l-0.5-0.3l-150.8-7.8L382.4,1215.9z M522.7,1271.3l34.3,22l-14.3,67.2l-4.6-3.1l-0.3-0.2l-174.1-51.8
					l8.7-41.9L522.7,1271.3z M793,1332l-59.8-19.1l24.1-69.8l101.6,31.6l-49.6,63L793,1332z M728.7,1311.5l-54.6-17.4l-10.7-80.1
					l89.4,27.8L728.7,1311.5z M710.8,1223.7l9.6-27.1l-19.7-12.3l10.1-33.4l66.3,20.6l-22.7,65.7L710.8,1223.7z M684.1,1137.6
					l18-55.8l95.2,30.8l-18.8,54.3L684.1,1137.6z M706.5,968.6l49.3-60.2l-1.8-1.5l2.2,1l2.4-5.5l106,92.1l-56.7,67.7L706.5,968.6z
					 M760.5,897.8l10.3-23.4l112.6,57.1l-3.8,8.8c-1.8,3.4-14.8,28.5-10.5,52L760.5,897.8z M588.6,735l29-74.5l80.5,33.8l-28.3,66.6
					L588.6,735z M584,733.6l-7.5-2.4l28.9-75.7l7.8,3.3L584,733.6z M572,729.7l-34.7-11.1l30.6-79l33.1,13.9L572,729.7z
					 M517.1,614.3l44.3-102.9h94.7l-53.4,139.4L517.1,614.3z M512.7,611.3l-85.1-35.7l10.7-27.1L555.8,510L512.7,611.3z
					 M423.1,573.8l-27.2-11.4l36.4-11.9L423.1,573.8z M421.4,578.2L409,609.7l-16.5-43.6L421.4,578.2z M413.1,625.1l0.8-2.4
					l-2.4-6.4l14.3-36.3l85,35.7l-35.4,83.2l-78.3-25L413.1,625.1z M494,854.8l-16.2,49.7L336.2,860l16.3-49.8L494,854.8z
					 M322.5,855.8l-57.3-18l16.1-49.9l57.5,18.1L322.5,855.8z M249.6,837.9l-7.9,25.7l-53.9-16.9L196,821L249.6,837.9z M194.2,905.9
					l-2.8,10.3l-23.6-7.7l2.9-8.9L194.2,905.9z M143.1,969.7L89,952.9l19-58.7l53.9,17.4L143.1,969.7z M141.6,974.2l-21.3,66
					l-54.2-16.8l21.3-66L141.6,974.2z M118.9,1044.7l-21.8,67.7l-54.4-16.3l22-68.2L118.9,1044.7z M26.5,1203.3l38-48.8l33.1,49.6
					L26.5,1203.3z M55.1,1114.7l123.3,37L140,1242L55.1,1114.7z M206.8,1255.7l160.9,7.9l-9.5,45.3l177.6,52.8l5.9,3.9l-4.8,22.4
					l-3.2-2l-0.5-0.3l-164.7-4.2c-3.2-20.6-11-36.3-23.4-46.8c-20.1-17.1-44.9-14.3-47.2-14l-102.1,3.7l-43.9-63.5h53.6
					L206.8,1255.7z M174.1,1323.6l-33-0.6v-47.6L174.1,1323.6z M179.5,1328.5l32.5,49.2l-70.8-1.8v-48.1L179.5,1328.5z
					 M198.8,1328.3l99.2-2.8l0.3,0c0.2,0,24.6-3.3,43.7,12.9c11.3,9.6,18.5,24,21.6,43l-130.8-3.3L198.8,1328.3z M364.3,1386.2
					c0.6,4.7,0.9,9.7,1,14.9l0.7,38.1l-92-0.7l-37.9-55.4L364.3,1386.2z M366.1,1443.9l1,52.1l-54.4-1l-35.4-51.8L366.1,1443.9z
					 M370.8,1443.9l155.2,1.2l22.2,54.4l-176.5-3.4L370.8,1443.9z M530.9,1444.4l63.8-15.8l77.9,47.3l-119.3,23.3L530.9,1444.4z
					 M601.2,1427l24.1-6l66.9,44.4l2.4,18l-0.2,0.2L601.2,1427z M701.3,1497.9l2.4-3.1l91.6,55.7l-86.9,0.9L701.3,1497.9z
					 M703.6,1551.4l-44.8,0.4l38.4-48.7L703.6,1551.4z M803.1,1555.2l52.4,32.7l-1,28.1H716.8l-7.8-59L803.1,1555.2z M900.9,1508.2
					l-12.5-8l-3.2-40l111.3-14.5l6,47.2L900.9,1508.2z M883.4,1496.9l-46.3-29.7l0.7-0.9l42.7-5.6L883.4,1496.9z M835.1,1461.8
					l-2.1,2.8l-70.1-45l12.8-16.2l99.2-10.3l5.1,62.9L835.1,1461.8z M874.6,1388.4l-94.8,9.9l34.4-43.7l59.3,20.8L874.6,1388.4z
					 M823.6,1342.7l42.9-54.5l5.8,71.6L823.6,1342.7z M758.9,1238.6l22.7-65.7l126.5,39.3l-46.1,58.5L758.9,1238.6z M783.2,1168.4
					l28.7-83l99.4,91.8l13.6,13.8l-13.6,17.2L783.2,1168.4z M921.4,1167l-110-101.6l56.8-67.8l3.5,3c2,5.1,5,10.1,9.5,14.5
					c20.6,20.6,68.6,62.8,82.4,74.9l-31.9,87.3L921.4,1167z M891.2,1005c-19.7-19.7,1-57.8,1.2-58.2l0.2-0.3l3.8-8.6l113.2,57.4
					l-36.5,84C959.5,1067.6,911.3,1025.1,891.2,1005z M885.4,927.1L772.8,870l23.7-53.7l1.6,0.5L915.1,859L885.4,927.1z
					 M768.5,867.9l-55.2-28l-3-51l81.6,26L768.5,867.9z M674.5,762.4l28.1-66.2l119.6,50.2l-24.4,55.3L674.5,762.4z M812.2,638.2
					l-37.1,83.3l-70.7-29.7l44.1-104L812.2,638.2z M744.7,584.8L700,690l-80.7-33.9l50.8-130.2L744.7,584.8z M614.9,655.4l-7.8-2.7
					l54.1-141.3h10.4L614.9,655.4z M346.2,474.8l-40.5-14.6l36.9-90.1l39.1,15.2L346.2,474.8z M344.5,479.2l-0.1,0.2l31,81.9
					l-25.9,19.2l-31.3-3.5l12-30.3l-51.4-20.9l25.1-61.2L344.5,479.2z M274.4,524l-41.1-16.7l-2-5.6l-1-0.5l22.8-55l46.3,16.7
					L274.4,524z M235.5,513.3l88.6,36l-10.8,27.1l-57.5-6.4L235.5,513.3z M311.5,581.1l-23.6,59.4l-3.2-0.9L271.8,615l-14.3-39.9
					L311.5,581.1z M325,666l54,17.2l-17.5,53.4l-126.1-38.2l17.2-53.3L325,666z M360.1,741.1l-19.7,60.3L215,762l19-59L360.1,741.1z
					 M276.8,786.4l-16.1,49.9l-63.2-19.9l16.1-50L276.8,786.4z M192.9,815.1L139,798.1l16.2-50l53.8,16.9L192.9,815.1z M191.4,819.6
					L178.1,861l-54-16.8l13.4-41.5L191.4,819.6z M176.7,865.5L163.3,907l-53.9-17.4l13.2-41L176.7,865.5z M103.4,892.7l-19,58.7
					l-73.9-22.9l18.9-59.7L103.4,892.7z M83,956l-21.3,66l-73.4-22.8L9.1,933L83,956z M60.2,1026.5l-21,64.8l-65.3-91.6L60.2,1026.5
					z M-45.8,1194.6l-63.9-48.1l48.6-65.9l87,25.4L-45.8,1194.6z M-66,1079.2l-47.6,64.4l-38.6-29l12.1-57L-66,1079.2z M-37.5,1207
					l0,0.4l136.5,1.4l28.7,45.6v7.2l-179.7-3.2l-16.6-14.1L-37.5,1207z M127.7,1266.4v56.3l-103-2l-71.5-57.4L127.7,1266.4z
					 M127.7,1327.5v48l-36.7-1l-61-48.9L127.7,1327.5z M141.2,1380.6l75.2,1.8l37,55.8l-112.2-0.9V1380.6z M257.7,1443l34.2,51.6
					l-150.7-2.9v-49.6L257.7,1443z M296.3,1499.4l37,55.7l-192,1.9v-60.6L296.3,1499.4z M371.9,1500.9l178.4,3.5l19.8,48.5l-197.2,2
					L371.9,1500.9z M555.1,1503.7l123.5-24.1l12.8,7.8l-50.9,64.7l-65.3,0.7L555.1,1503.7z M636.7,1556.9l-39.4,50l-20.2-49.4
					L636.7,1556.9z M655,1558.2h49.2l7.7,57.7H609.7L655,1558.2z M712.7,1621.7l6.9,50.5l-115.7,1.3l1.9-52.7l0.2,0.8H712.7z
					 M724.4,1672.2l-6.9-50.5h136.8l-1.8,48.9L724.4,1672.2z M860.1,1589.8l0.4,0.3l0.3,0.2l144.2,39.1
					c-46.2,13.8-93.4,27.6-132.7,38.9l-15.1,0.3L860.1,1589.8z M893.8,1677c26.3-7.6,77.2-22.4,129.9-38.2l28.1,49.5l-22.6,51.1
					L893.8,1677z M1051,1677.3l-22.7-40c2.8-0.8,5.5-1.7,8.3-2.5c28.2-8.5,51.7-15.7,71.2-21.8l12.2,42.9L1051,1677.3z
					 M1023.8,1623.7l-8.6-67.9l82.3-14.4l7.6,57.4C1080.4,1606.6,1052.6,1615.1,1023.8,1623.7z M1014.6,1551.1l-6.9-54.3l82.2-12.5
					l6.9,52.4L1014.6,1551.1z M995.9,1440.9l-111.1,14.5l-6.3-78.3l32.9,11.5l79.3,11.2L995.9,1440.9z M914.8,1374.7l-37.6-13.2
					l-6.4-78.8l4.5-5.7l99.2-4.8l14.3,113L914.8,1374.7z M879.3,1272l55.8-70.8l52.8,53.4l-12.3,12.7L879.3,1272z M942.7,1188.6
					l7.5-20.7l138.6,67.8l-32.8,67.4L942.7,1188.6z M1095.2,1233.6l30.2-62l37.2,19.6l-21.9,64.6L1095.2,1233.6z M1015.7,993.1
					l36.5-84l170.3,88.3l4.9,2.6l-28.4,83.8L1015.7,993.1z M1229.2,984.7l-70.4-36.5l21.3-51.6l75.7,31.8l-23.4,58L1229.2,984.7z
					 M1187,867.2l-9.6,23.2l-99.1-41.6l8.4-19.4L1187,867.2z M1074,846.9l-41.6-17.5l6.9-18l43,16.2L1074,846.9z M1072.1,851.3
					l-18.5,42.5l-119.3-43l21.1-48.4L1072.1,851.3z M920.9,845.9l-118.1-42.6l-0.5-0.2l24.2-54.9l115.8,48.6L920.9,845.9z
					 M828.5,743.9l30.7-69.5l114.9,49.6l-29.9,68.4L828.5,743.9z M672,521.2l7.1-18.2l17.1,20.7l0.7-0.6l64.3,29.7l113.2,75.5
					L857,667.5L672,521.2z M761.1,547.6l-63.2-29.3l-15.4-18.7l85.5,32.6L761.1,547.6z M685.8,485.7l17.8-45.6l87.9,39.3l-17.7,39.8
					L685.8,485.7z M705.3,435.6l18.1-46.4l90.8,39.1L793.4,475L705.3,435.6z M878.1,285.3l-16.7,37.4l-95.9-41.2l15-38.5
					L878.1,285.3z M859.5,327.1l-20.9,46.8l-92.9-41.6l18.1-46.3L859.5,327.1z M911.1,465l-90.6-39l20.4-45.8l83.3,37.3L911.1,465z
					 M842.9,375.8l20.9-46.8l141.8,60.9l-79.9,22.4l-0.1,0.5L842.9,375.8z M836.7,378.2L816.2,424l-91-39.2l18.8-48.1L836.7,378.2z
					 M817.2,430.3l89.9,39.3v57.5L795.7,477L817.2,430.3z M924.4,470.7l13-46.9l1-0.3l141.7,61.5l-18.5,44.8L924.4,470.7z
					 M945.6,421.5l80.4-22.7l1.4,0.8v0l73.9,32.9l-19.6,48.1L945.6,421.5z M1106.1,434.5l124.3,55.8l-20,46.1l-124.1-53.9
					L1106.1,434.5z M1107.9,430.1l17.7-42.7l125.7,54.8l-19,43.7L1107.9,430.1z M1121.2,385.5l-17.6,42.7l-69.8-31.3l61.9-17.3
					l3.7,1.6l2-4.3L1121.2,385.5z M1074.8,370.5l-61.9,17.3l-147.1-63.2l16.7-37.4L1074.8,370.5z M977.7,312.9l20.5-44.9l114.2,50
					l-20.3,44.5L977.7,312.9z M973.4,311l-85.2-36.9l19.5-45.7l86.1,37.7L973.4,311z M883.8,272.2l-97.2-42.1l24.8-43.8l91.9,40.2
					L883.8,272.2z M776.1,241.1l-15,38.5L694.6,251l19.6-36.7L776.1,241.1z M759.3,284l-18,46.3l-71-31.8l-1.9,4.3l71.2,31.8
					L721.1,382l-67.8-53.7l39-73L759.3,284z M649.2,325.9l-77.6-31.6l22.1-49.9l80.6,34.6L649.2,325.9z M649.1,331l70.2,55.7
					L701,433.7l-62.6-28l-0.4-0.2l-34.3-1L551,340.8l18.7-42.2L649.1,331z M654.9,473.9l-162.9-62l15.4-39l27.6,29.4l3.5-3.3
					l-65.7-70l36.5-31.3L654.9,473.9z M466.5,329.4l-28.1,62.1L400.4,377l32.9-83L466.5,329.4z M343.7,355.1l-45.5-17.7l36.7-88.6
					l45.5,16.8L343.7,355.1z M338.2,368.3l-37,90.2L255,441.8l37.7-91.2L338.2,368.3z M250.5,440.2l-48.8-17.6l38.2-92.4l48.3,18.7
					L250.5,440.2z M248.7,444.6L226.2,499l-45.8-24.9l19.5-47.1L248.7,444.6z M176.2,471.8l-39.4-21.4l16.4-40.3l42.2,15.2
					L176.2,471.8z M132.6,448.2L80.7,420l10.6-32.3l57.5,20.8L132.6,448.2z M76.5,417.5l-43-25.8l7.4-22.3l45.9,16.6L76.5,417.5z
					 M29.4,389.3l-44.5-26.7l4-11.9l47.6,17.2L29.4,389.3z M-19.3,360l-27-16.2l-9.3-9.3l40.1,14.5L-19.3,360z M-89.7,418.7
					l8.3-16.1l37.3,36.4L-89.7,418.7z M-31.5,444.6l-47.6-46.4l22.9-44l1.1,1.1l126.1,75.6l-25.4,47.9L-31.5,444.6z M75,433.2
					l52.1,28.3l-18.5,45.4l-58.7-26.1L75,433.2z M66,576.7l19.5-75l43.6,19.4l-19.5,68.1L66,576.7z M114.2,590.5l19.3-67.5
					l39.2,17.4L157.5,603L114.2,590.5z M177.2,542.5l63.7,28.3l17.7,49.5l7.2,13.8l-103.6-29.8L177.2,542.5z M248.1,643.9
					l-17.1,53.2l-85.2-25.8l12.9-53.1L248.1,643.9z M150.6,746.7l-16.2,50l-74.8-23.5l15.9-50.1L150.6,746.7z M133,801.3l-13.4,41.5
					L45,819.5l13.2-41.7L133,801.3z M40.5,818.1l-100.3-31.2l12.3-42.3l101.2,31.8L40.5,818.1z M-77.3,829.8l-49.4-8.3l17.4-79.7
					l53.1,15.8L-77.3,829.8z M-113.9,740.4l-17.5,80.3l-25.2-4.2l-43.2-60.6l39.9-29.1L-113.9,740.4z M-178.6,734.4l-24,17.5
					l-30.2-42.3l29.3-14.6L-178.6,734.4z M-210.3,832.5l28.6-26.5l15.8,22.1l-24,22.7L-210.3,832.5z M-152.7,821.9l74.1,12.5
					l-18.9,64.9L-152.7,821.9z M1.2,930.6l3.3,1l-20.9,66.1l-14.3-4.4l-58.6-82.2L1.2,930.6z M20.4,1089.6l-157.4-45.9l12.7-54.9
					l77.8,6.9L20.4,1089.6z M-144.6,1056.3l-12.3,58.4l-25.9,33.6l-40.5-114.9L-144.6,1056.3z M-186.3,1152.7l-33.3,43.1l-34.5-28.9
					l64.1-24.3L-186.3,1152.7z M-183.3,1156.5l101.5,82.5l-34.9,43.1l-99.3-83.3L-183.3,1156.5z M31.6,1404.9l96.1,36.3v50.3
					l-70.1-1.4l-79.2-62.1L31.6,1404.9z M127.7,1565v49.1L63.6,1565H127.7z M255.6,1616l-0.6-15.4h50.7v15.4H255.6z M311.5,1616
					v-23.1h-61.4l0.8,23.1H141.2v-54.2l196.3-1.1l39.2,55.3H311.5z M373.4,1584.9l-0.4-24.9l199-2.2l21.9,53.6l-0.8,1l-1.4,2.6l0,1
					H394.1L373.4,1584.9z M591.5,1621.7l-1.9,52.8l-153.5,3.3l-38.8-56.1H591.5z M587.4,1735.3l-1.7,49.6l-63.3-39.5L587.4,1735.3z
					 M601.5,1740l126.9-3l7,52.5l-135.6-0.2L601.5,1740z M733.2,1736.9l116.8-2.7l-2,53.4l-0.9,2.1l-106.9-0.2L733.2,1736.9z
					 M856.7,1682.8l15.2-0.3l151.5,69.8l-20.2,45.8l-148.3-68L856.7,1682.8z M1027.8,1754.4l123.7,57l-21.1,45.2l-122.9-56.4
					L1027.8,1754.4z M1033.5,1741.3l19.5-44.1l126.3,54.7l-21.8,46.6L1033.5,1741.3z M1183.7,1753.8l124.4,53.9l-22.6,49.8
					l-123.6-57L1183.7,1753.8z M1279.4,1666.4l-72.5,29.7l-80.6-35.9l-0.3-1.2l147.7-45.9c3.2,9.8,5.5,20.4,5.5,30.5
					C1279.1,1649.2,1279.1,1657.1,1279.4,1666.4z M1124.6,1654.5l-12.2-42.9c90-28.3,92.4-32.4,94.3-35.8c1.7-3,9.1-11.9,19.3-23.2
					l29.5,21.5c2.4,3.9,10.5,17.8,16.5,34.7L1124.6,1654.5z M1195,1567.6c-6.4,4.2-39.9,15.5-85.3,29.8l-7.5-56.8l86.7-15.1
					l25.6,18.6C1204.8,1555,1197.6,1563.7,1195,1567.6z M1184.5,1521.4l-82.9,14.5l-6.9-52.3l57-8.7L1184.5,1521.4z M1148.6,1470.6
					l-54.6,8.3l-8.6-65.6l25.3,3.6L1148.6,1470.6z M993.7,1385.9l-14.6-115.3l12.1-12.5l57.5,58.2l52,84.8L993.7,1385.9z
					 M1199.6,1310.5l-73.5,3.1l17.3-51.1l62.2,30.5L1199.6,1310.5z M1145,1258l21.9-64.5l62.1,32.8l-21.7,62.2L1145,1258z
					 M1168.4,1189l18.8-55.4l34.3,10.6l1.4-4.5l-34.2-10.6l13.1-38.5l63.6,31.5l-34.8,99.8L1168.4,1189z M1354.2,1160.6l-82.9-41
					l14.2-37.7l83.4,49.5L1354.2,1160.6z M1287.2,1077.3l14.2-37.7l89.5,48l-19.8,39.4L1287.2,1077.3z M1297.1,1037.4l-30.2,80.1
					l-63.7-31.5l28.4-83.7L1297.1,1037.4z M1261.9,925.8l25.4-66.4l62.5,27l-27.4,64.8L1261.9,925.8z M1283,857.5l-13.6,35.6
					L1088.7,825l18.8-43.3L1283,857.5z M1084.3,823.3l-47.7-18l-8.6,22.2L957.4,798l29.8-68.3l116,50.1L1084.3,823.3z M1013.1,634.7
					l-37.1,85l-114.9-49.6l38.6-87.5L1013.1,634.7z M778.2,520.9l17.6-39.5l113.8,50.9l-13.3,33.6L778.2,520.9z M921.5,533.3v-57.5
					l264.6,113.5l-20.4,45.6L921.5,533.3z M1065.9,531.7l18.5-44.8l124.1,53.8l-19.1,44.1L1065.9,531.7z M1369.1,623l-14.5-24.1
					l-139.8-60.7l20-46.1l182.9,82l-25.8,53.3L1369.1,623z M1236.6,487.8l19-43.8l185.8,80.9l-21.7,45L1236.6,487.8z M1257.5,439.7
					l21.2-49l187.9,82.2l-23.1,47.8L1257.5,439.7z M1253.1,437.8l-149.9-65.3l22.3-48.8l148.8,65.1L1253.1,437.8z M1114.4,313.6
					l-114.2-50l22.4-49l114.3,49.9L1114.4,313.6z M995.8,261.7L909.6,224l21.2-49.5l87.4,38.2L995.8,261.7z M932.6,170.1l17.9-41.9
					l87.9,40.2l-18.3,40L932.6,170.1z M928.3,168.2l-85.4-37.3l23.4-41.3l80,36.6L928.3,168.2z M926.4,172.6l-21.2,49.5l-91.4-40
					l26.7-47L926.4,172.6z M809.4,180.2l-62.8-27.5l25-47.7l64.4,28.1L809.4,180.2z M807.1,184.4l-24.8,43.8L721,201.7l23.4-44.7
					L807.1,184.4z M716.6,199.8l-86.4-37.4l20.6-46.3l89.3,39.1L716.6,199.8z M664,192.6l-15.8,32.1l4.3,2.1l15.9-32.3l41.5,18
					l-33.3,62.2L595.7,240l28.6-64.6L664,192.6z M567.2,292.5l-48-19.6l50.8-121l50,21.6L567.2,292.5z M565.3,296.8l-17.7,39.9
					l-58.7-71L565.3,296.8z M506.3,294.1l-36.8,31.5l-34.2-36.4l21.7-54.7L506.3,294.1z M424.7,277l-38.1-14.1L407,213l29.4,34.4
					L424.7,277z M403.6,208.9l-21.4,52.3l-45.5-16.8l31.7-76.7L403.6,208.9z M364.9,163.7l-32.7,79.1l-48.6-18L326.1,122l1.4-2.1
					L364.9,163.7z M330.4,247.1l-36.6,88.6L245.4,317l36.3-87.8L330.4,247.1z M241,315.3l-42.4-16.5l35.5-87.3l43.2,16L241,315.3z
					 M235.5,328.5l-38.3,92.5L155,405.7l38.1-93.6L235.5,328.5z M150.5,404.1l-57.8-20.9l32-97.7l63.9,24.8L150.5,404.1z
					 M88.3,381.6L42.4,365l32.7-98.7l45.2,17.5L88.3,381.6z M37.9,363.4l-47.5-17.2l32.8-96.6l47.4,15.2L37.9,363.4z M-14.1,344.6
					l-47.1-17l34.9-93.8l45,14.4L-14.1,344.6z M-65.3,325l-36.5-36.2l25-71.3l46,14.7L-65.3,325z M-105.6,285.1l-44.7-44.4
					l15.9-41.6l53,17L-105.6,285.1z M-154,237l-45.7-45.4l5.1-11.9l55.8,17.9L-154,237z M-203.4,188.1l-16.5-16.4l20.7,6.6
					L-203.4,188.1z M-126.2,284.8l-32.4,36l-53.3-52l8.2-60.9L-126.2,284.8z M-161.7,324.3l-40.1,44.6L-224,359l11.3-84.3
					L-161.7,324.3z M43.3,483L3,559.2l-145.1-39.5l10-47.6l-4.7-1l-9.9,47.3l-95.1-25.9l17.3-128.6L43.3,483z M-3.7,572.5
					l-15.1,49.5l-222-67v-46.7L-3.7,572.5z M2.2,573.8l35.6,9.7l116.3,33.4l-12.9,53l-153.5-46.5L2.2,573.8z M59,650l-16,57.9
					l-73.1-23l16.6-56.8L59,650z M71,721.7l-15.9,50.1L-46.2,740l14.7-50.6L71,721.7z M-187,893.9l7.2-29.5l32.9,6.8l10,24.6
					l22.3,6.6L-187,893.9z M-50.1,990.6l-72.8-6.4l22.9-63.5L-50.1,990.6z M-129,988l-12.6,54.4l-83.7-24.4l21.8-50.8L-129,988z
					 M-208,965.8l-21.8,50.8l-87.4-25.5l14.6-51.8L-208,965.8z M-262.6,1021.9l-41,16.5l-11.9-32L-262.6,1021.9z M-222.5,1199.6
					l-32.1,41.5l-62.3-50.4l57.7-21.9L-222.5,1199.6z M-218.8,1202.6l99.2,83.2l-31.6,39l-99.6-80.7L-218.8,1202.6z M-154.2,1328.5
					l-32.2,39.8l-100.3-77.7l33-42.8L-154.2,1328.5z M-143.1,1337.4l113.9,89.3l-52.4,22.7l-93.6-72.4L-143.1,1337.4z M-86.5,1451.7
					l-47.3,20.5l-73.2-55.7l28.9-35.7L-86.5,1451.7z M-66.1,1541.6l-47,58.9L-265,1488.1l49-60.5L-66.1,1541.6z M-160.6,1667.6
					l48.3-60.5l78.5,58.1L-86,1728l-81.3-59L-160.6,1667.6z M-109.3,1603.4l47-58.9l79,60.1l-47.4,57L-109.3,1603.4z M-53.4,1533.4
					l27.7-34.7l79.4,61.4l-27.8,33.5L-53.4,1533.4z M55.7,1563.1l72,57v53.6l-100.7-77.2L55.7,1563.1z M141.2,1621.7H380l36.9,55.7
					l-275.7,3.4V1621.7z M300.5,1692.4l2.3,66.8l-161.7,10.2v-74.3L300.5,1692.4z M307.4,1692.3l121.2-2.1l25.7,37.7l-0.3,0
					l1.5,21.7l-144.8,9.2L307.4,1692.3z M455.9,1754.4l3.6,54l-145.9,8.3l-2.7-53.1L455.9,1754.4z M460.6,1754.1l11.1-0.7l35.7,52.3
					l-43.2,2.5L460.6,1754.1z M736,1794.3l6.6,49.8l-58.4,2.3l-83.9-52.4L736,1794.3z M852.6,1789.1l0.2-0.4l2-53.3l146.6,67.2
					l-21.7,49.2l-127.7-60.9L852.6,1789.1z M1118.4,1882.3l-123.3-53.9l10.5-23.8l122.8,56.3L1118.4,1882.3z M1259.1,1915.6
					l-124.4-57l21.1-45.2l123.8,57L1259.1,1915.6z M1289.9,1859.5l22.7-49.9l11.2,4.9c25,31,64.2,75.9,85.4,100L1289.9,1859.5z
					 M1321.6,1788.1c-12.4-18.8-20.7-46.5-24.9-82.6l68.3-4.3c5.4,15.3,12,30.5,19.1,45L1321.6,1788.1z M1350.6,1640.1
					c1.7,18.4,6.3,37.5,12.7,56.4l-67.1,4.2c-1.8-17.2-2.7-36.2-2.7-57.1c0-11.7-2.6-23.7-6.1-34.7l53.9-16.7
					C1345.9,1607.7,1349.1,1623.8,1350.6,1640.1z M1339.7,1587.7l-54,16.8c-7.6-21.5-18.2-38.2-18.9-39.2l-0.7-1.1l-30.5-22.2
					c14.2-15.4,31.4-33.1,46.2-47.1C1293.6,1506,1323.2,1537.6,1339.7,1587.7z M1344.3,1359.2c9.7,49.4,9.8,80.2,0.5,91.3
					c-4.5,5.4-11,5.7-21.2,5.5c-5.3-0.1-10.8-0.2-15.7,1.3c-15.2,4.7-55.5,45-83.9,76l-27.9-20.3l-70.3-99.6
					c32.8-12.8,152.2-59.2,202-72.6c4.1-1.1,8.6-1.8,13.3-2.1C1341.9,1345.3,1342.9,1352,1344.3,1359.2z M1407.2,1217.2
					c-27.9,10.5-72.5,27.2-67.4,107.4c-5.5,0.4-10.7,1.2-15.7,2.5c-33,8.9-94.3,31.4-142.6,49.6l88.1-252.7l82.4,40.8l-1.2,2.5
					l4.3,2.1l1.3-2.5l74.2,36.7c-2,2.4-3.9,4.3-5.6,5.5C1421,1212,1414.6,1214.5,1407.2,1217.2z M1473.2,1131.9
					c-13.4,26.3-28.4,53.4-39.6,68l-75.1-37.2l36.6-72.8L1473.2,1131.9z M1397.3,1074.9l-105.9-56.8l17.4-22.4l-1.9-1.5l2.2,0.9
					l15.9-37.7l108.4,45.5L1397.3,1074.9z M1435.6,998.7L1326.9,953l27.4-64.8l112.4,48.6L1435.6,998.7z M1109.5,777.4l17.3-39.8
					l49.3,21.8l14.1-5.5l36.1,16.2l7.1,14.2l70.3,30.8l-18.8,38.1L1109.5,777.4z M1305.8,810.8l-69-30.2l-11.9-23.7l10.6-19.9l87,40
					L1305.8,810.8z M1023.6,623.8l-114.1-52.5l13.3-33.5l112.3,46.8L1023.6,623.8z M1172.1,636.7l19.7-45.5l160.2,69l1.2,2.6
					l2.4,0.6h29.6l6.2,66.7L1172.1,636.7z M1384.7,657.6h-21.6l15.5-11.4l-7-17.1l18.2,3.2l-5.9,13.7L1384.7,657.6z M1479,447.3
					l-10.3,21.3l-188.1-82.3l26.3-60.6L1479,447.3z M1382.2,140.2l-77.3,178.2l-39.4-27.8l78.6-172.8L1382.2,140.2z M1340,115.4
					l-78.4,172.4l-90.5-63.9L1246,59.9L1340,115.4z M1156.2,222.2l-17.4,38l-114.3-49.9l18.2-39.9L1156.2,222.2z M1058.1,125.4
					l-17.6,38.7l-88-40.2L969,85.1C1018.2,106.9,1049.9,121.6,1058.1,125.4z M916.1,61.7c17.6,7.7,33.8,14.8,48.5,21.4l-16.6,38.7
					l-79.5-36.3l18.5-32.6C896.3,54.5,906,57.3,916.1,61.7z M882,52.2l-17.8,31.3l-44.1-20.1C837,54.8,857.9,49.2,882,52.2z
					 M814.9,66.2l47,21.5L838.5,129l-64.1-28C779,95,793.2,78.5,814.9,66.2z M767.3,103.1l-25,47.7l-89.6-39.2l21.8-49.1
					L767.3,103.1z M670.1,60.7l-21.8,49.1l-51.2-22.4l20.8-49.5L670.1,60.7z M595.3,91.7l51.1,22.3l-20.6,46.4l-50.2-21.8
					L595.3,91.7z M565.7,150l-50.8,121.1l-32.3-13.2L459,229.4l42.6-107.3L565.7,150z M438.4,242.4L330.3,115.8l35.5-52.4
					l122.6,53.1L438.4,242.4z M305.1,37.1l56.2,24.3l-34.3,50.6l-35.5-41.6L305.1,37.1z M289.5,75.4l34.8,40.7l-2.3,3.4l-0.1,0.2
					l-42.8,103.4l-43.2-16L289.5,75.4z M229.6,209.9l-35.5,87.2l-64.8-25.2l29-88.4L229.6,209.9z M153.8,181.8l-29,88.3l-45.2-17.5
					l29-87.5L153.8,181.8z M104.2,163.5l-29.1,87.7L27.8,236l30.4-89.5L104.2,163.5z M53.7,144.8l-30.4,89.7l-44.6-14.3l33.7-90.7
					L53.7,144.8z M7.9,127.9l-33.8,90.9L-72.1,204l32.8-93.6L7.9,127.9z M-43.7,108.8l-32.9,93.8l-52.6-16.9l36.4-95.1L-43.7,108.8z
					 M-97.3,89l-36.5,95.3l-55.3-17.7l41.1-96.3L-97.3,89z M-152.4,68.6l-41.2,96.5l-43.3-13.9L-202.7,50L-152.4,68.6z
					 M-244.4,167.5l36.5,36.2l-8.2,61l-53.4-52L-244.4,167.5z M-216.9,270.5l-11.6,86.5l-97.2-43.2l53.8-96.9L-216.9,270.5z
					 M-327.7,318.1l26.9,11.9l-31.1,66.4l4.3,2l31.2-66.5l67.3,29.9l-17.3,128.8l-125.7-58.5L-327.7,318.1z M-407.2,504.5l26.5-59.1
					l124.5,58.4v47L-407.2,504.5z M-19.5,626.6l-17.2,56.8l-204.1-64V560L-19.5,626.6z M-345.5,579.3l89.3,22.8v57.5l-83.8-22.9
					L-345.5,579.3z M-339.6,641.5l83.4,23v42.2l9.4,10.5l-0.2,4l-106.6-28.1L-339.6,641.5z M-316,707.6l68.7,18.2l-13,46.2
					l-68.6-16.3L-316,707.6z M-330.2,760.2l68.5,16.3l-15,53l-66.9-19.9L-330.2,760.2z M-358.4,864.5l13.6-50.3l66.9,19.9
					l-13.3,47.2L-358.4,864.5z M-287.9,886.8l178.8,21.1l5.7,8l-24.3,67.5l-173.7-48.7L-287.9,886.8z M-374.6,919.1l67.4,18.9
					l-14.6,51.7l-65.4-19.1L-374.6,919.1z M-388.5,985.2l67.2,19.6l13.2,35.4l-54.3,21.9L-388.5,985.2z M-306.4,1044.6l16.4,44.1
					l-55.7,22.3l-15.1-44.6L-306.4,1044.6z M-344.2,1115.6l55.9-22.4l26.6,71.5l-58.3,22.1L-344.2,1115.6z M-371.5,1211.4l49.5-18.8
					l64.5,52.2l-32.9,42.6L-371.5,1211.4z M-289.7,1294.4l100.2,77.6l-29,35.8l-100-76.1L-289.7,1294.4z M-375.8,1406l48.6-63
					l99.8,75.9l-49.1,60.6L-375.8,1406z M-268,1491.8l36,26.7l11.5,111.9l-100.6-73L-268,1491.8z M-363.9,1610.2l39.7-49.1
					l30.7,22.3l-34.5,50.8L-363.9,1610.2z M-371.1,1706.3l44.5-65.6l64.6,43L-371.1,1706.3z M-249.8,1686.1l34.3-7.1l3.3,32.2
					L-249.8,1686.1z M-210.8,1678l37.2-7.7l84.6,61.4l-19.4,23.4l-92,23.5L-210.8,1678z M-105.8,1759.3l20.6-24.8l39,28.3
					l-148.3,73.5l-5.4-52.9L-105.8,1759.3z M-194,1841.3l152.2-75.4l49.9,36.2l-195.6,102.6L-194,1841.3z M12.7,1799.7l-94.9-68.8
					l52.1-62.7l82.8,61.4l13.1,18.7L12.7,1799.7z M56.5,1726.5l-0.2-0.3l-83.2-61.7l47.4-57l106.8,81.3l-57.9,56.1L56.5,1726.5z
					 M141.2,1785.6v-11.4l162.9-10.2l3.7,53.1l-133.6,7.5L141.2,1785.6z M220.1,1878.1l-39.5-48.9l128.6-7.4l2.5,49.4L220.1,1878.1z
					 M316.4,1870.9l-2.5-49.4l145.9-8.3l3.1,46.7L316.4,1870.9z M467.7,1859.5l-3.1-46.6l46-2.6l29.9,43.8L467.7,1859.5z
					 M560.1,1857.4l23.1-1.7l-1.2,33.9L560.1,1857.4z M597.7,1849.9l1.8-50.8l76.4,47.7L597.7,1849.9z M691.5,1851l51.8-2.1l5,37.6
					L691.5,1851z M753.6,1889.7l-5.5-41l75.4-3l-29.3,69.4L753.6,1889.7z M959.3,1897.7l-129.1-55.8l19.7-46.6l127.7,60.9
					L959.3,1897.7z"/>
			</g>
		</g>
	</g>
	<g class="st5">
		<g>
			<defs>
				<polygon id="SVGID_3_" points="0,1920 0,0 1085.9,4.3 1085.9,1928.7 				"/>
			</defs>
			<clipPath id="SVGID_4_">
				<use xlink:href="#SVGID_3_"  style="overflow:visible;"/>
			</clipPath>
		</g>
	</g>
</g>
<g class="st6">
	<g>
		<path class="st7" d="M569.1,854.8l366.8,334.7c2.1,1.9,2.3,5,0.6,7.2l-452.7,576c-1.8,2.3-5.2,2.7-7.5,0.9
			c-2.3-1.8-2.7-5.2-0.9-7.5L925.1,1194L558.2,859.3c-1.1-1-1.7-2.5-1.7-3.9c0-1.2,0.4-2.3,1.2-3.3
			C557.7,852,563.1,847.3,569.1,854.8z"/>
	</g>
	<g class="st8">
		<path class="st9" d="M474.3,1815.7c-22.6,0-41-18.3-41-41c0-22.6,18.3-41,41-41c22.6,0,41,18.3,41,41
			C515.3,1797.3,496.9,1815.7,474.3,1815.7z"/>
	</g>
	<g>
		<path class="st9" d="M474.3,1785.9c-6.2,0-11.2-5-11.2-11.2c0-6.2,5-11.2,11.2-11.2c6.2,0,11.2,5,11.2,11.2
			C485.5,1780.9,480.5,1785.9,474.3,1785.9z"/>
	</g>
	<g class="st8">
		<path class="st9" d="M536.3,893.8c-26.3,0-47.6-21.3-47.6-47.6c0-26.3,21.3-47.6,47.6-47.6c26.3,0,47.6,21.3,47.6,47.6
			C583.9,872.5,562.6,893.8,536.3,893.8z"/>
	</g>
	<g>
		<path class="st9" d="M536.3,859.3c-7.2,0-13-5.8-13-13c0-7.2,5.8-13,13-13c7.2,0,13,5.8,13,13
			C549.3,853.4,543.5,859.3,536.3,859.3z"/>
	</g>
</g>
<g>
	<path class="st10" d="M596.2,787.8c0,0.5,0,0.9,0,1.4c-0.7,1.2-1.8,1.6-3.1,1.7c-3,0.2-5.9,0.5-8.4,2.5c-0.8,0.7-1.3,1.2-1.3,2.3
		c0,12,0,24.1,0,36.1c0,0.8,0,1.5,0,2.3c-0.1,1.3-0.7,2.1-2,2.3c-0.5,0.1-0.9,0.2-1.5,0.3c0,0.7,0,1.4,0,2.1c0,2.2,0,4.3-0.1,6.5
		c-0.1,1.6-0.9,2.3-2.5,2.3c-3.3,0-6.6,0-9.9,0c-1.7,0-2.5-0.8-2.6-2.5c-0.1-2.1-0.1-4.2-0.1-6.3c0-0.7,0-1.4,0-2.2
		c-16.6,1-33,0.6-49.6,0c0,0.7,0,1.2,0,1.7c0,2.1,0,4.2,0,6.3c-0.1,2.3-0.8,3-3,3c-2.4,0-4.8,0-7.2,0c-4.6,0-4.9-0.3-4.9-4.8
		c0-2,0-4.1,0-6.1c-3.1-0.5-3.5-1-3.5-3.7c0-11.6-0.1-23.1,0.1-34.7c0.1-3-0.8-4.7-3.4-5.8c-1.2-0.5-2.2-1-3.5-1
		c-2,0-4.3,0.1-5.9-1.7c0-0.7,0-1.3,0-2c0.1-0.4,0.3-0.8,0.3-1.2c0.6-4.4,1.2-8.7,1.9-13.1c0.5-3.2,1.2-3.7,4.4-3.5
		c0.4,0,0.8,0.2,1.2,0.2c0.6-0.1,1.3-0.1,1.7-0.5c1.8-1.7,3.5-3.5,5.2-5.3c0.4-0.4,0.6-1,0.7-1.6c0.2-1.3,0.4-2.6,0.4-3.9
		c0-2.4,1.1-4.3,2.8-5.8c0.9-0.8,2-1.6,3.1-2.2c5.5-3.2,11.6-4.5,17.8-5.3c8.1-1.1,16.2-1.2,24.3-0.9c4.6,0.2,9.1,0.9,13.7,1.4
		c0.4,0,0.9,0.2,0.9,0.4c0.1,1.1,1.2,1.1,1.9,1.3c5.3,1.5,10,4,13.5,8.4c0.3,0.4,0.8,0.8,1.5,0.7c0.2-0.1,0.3-0.2,0.5-0.2
		c0.3,2.1,0.6,4.2,0.9,6.3c0.1,0.7,0.3,1.4,0.7,1.9c1.5,1.7,3.2,3.4,4.8,4.9c0.3,0.3,0.9,0.3,1.4,0.3c1.3-0.1,2.6-0.4,3.9-0.4
		c1.4,0,2.2,0.8,2.4,2.2c0.4,2.8,0.7,5.6,1.1,8.4C595.4,782.9,595.8,785.3,596.2,787.8z M540,749.7c-3.9,0-7.8,0-11.7,0
		c-4.3,0-4.7,0.4-4.7,4.8c0,2.5,1,3.5,3.5,3.5c8.1,0,16.3-0.1,24.4,0c5,0.1,5.1-1.5,4.9-5.2c-0.1-2.1-1.1-3.1-3.2-3.1
		C548.8,749.7,544.4,749.7,540,749.7z M518.4,821.2c0.3,1.4,0.7,2.6,0.9,3.9c0.2,1,0.5,1.3,1.6,1.3c4.4,0,8.7,0.3,13.1,0.3
		c8.7,0,17.5-0.1,26.2-0.1c0.4,0,1-0.3,1.1-0.6c0.5-1.5,0.8-3.1,1.2-4.7C547.7,821.2,533.1,821.2,518.4,821.2z M496.6,792.1
		c0.8-8.3,1.5-16.4,2.3-24.5c-2.1,2-5,3.4-4.4,6.9c0,0.1-0.1,0.3-0.1,0.4c-0.6,4.6-1.3,9.2-1.9,13.8c0,0.3,0.1,0.9,0.3,1.1
		C493.9,790.6,495.2,791.3,496.6,792.1z M583.3,791.8c1.1-0.6,1.9-1.2,2.7-1.6c1.3-0.5,1.6-1.4,1.4-2.8c-0.7-4.4-1.2-8.8-1.8-13.2
		c-0.1-0.7,0-1.7-0.4-2.1c-1.2-1.4-2.7-2.6-4.1-3.9C581.9,776,582.6,783.8,583.3,791.8z"/>
	<path class="st11" d="M507.8,829.2c-3.2,0-5.8-2.6-5.8-5.8c0-3.2,2.6-5.8,5.8-5.8c3.2,0,5.8,2.6,5.8,5.8
		C513.6,826.6,511,829.2,507.8,829.2z"/>
	<path class="st11" d="M571.6,829.2c-3.2,0-5.8-2.6-5.8-5.8c0-3.2,2.6-5.8,5.8-5.8c3.2,0,5.8,2.6,5.8,5.8
		C577.4,826.6,574.8,829.2,571.6,829.2z"/>
	<linearGradient id="SVGID_5_" gradientUnits="userSpaceOnUse" x1="500.3405" y1="778.2861" x2="579.0483" y2="778.2861">
		<stop  offset="0" style="stop-color:#3D7DA5"/>
		<stop  offset="1" style="stop-color:#68C1B7"/>
	</linearGradient>
	<path class="st12" d="M572,794.5h-64.5c-3.9,0-7.1-1.8-7.1-4l2-24.3c0-2.2,0.5-4.1,4.4-4.1h64.9c3.9,0,5.4,2,5.4,4.2l2.1,24.2
		C579,792.7,575.9,794.5,572,794.5z"/>
	<linearGradient id="SVGID_6_" gradientUnits="userSpaceOnUse" x1="562.3859" y1="750.6639" x2="579.3183" y2="750.6639">
		<stop  offset="0" style="stop-color:#3D7DA5"/>
		<stop  offset="1" style="stop-color:#68C1B7"/>
	</linearGradient>
	<path class="st13" d="M579.2,754.8c-0.9-1.4-1.5-1.9-2.3-2.7l-0.3-0.3c-5.8-5.3-12.8-6.5-13.1-6.6c-0.4-0.1-0.8,0.1-0.9,0.5
		c0,0.1-0.1,0.1-0.1,0.2c-0.1,0.5,0.2,0.9,0.7,1c0.1,0,6.8,1.2,12.3,6.1l0.3,0.3c0.8,0.7,1.2,1.1,2,2.3c0.2,0.3,0.4,0.4,0.7,0.4
		c0.2,0,0.3,0,0.5-0.1c0.1-0.1,0.1-0.1,0.2-0.2C579.4,755.5,579.4,755.1,579.2,754.8z M564,746.3c-0.1,0.3-0.5,0.5-0.8,0.4
		c-0.3-0.1-0.5-0.5-0.4-0.8c0.1-0.3,0.5-0.5,0.8-0.4C563.9,745.6,564.1,745.9,564,746.3z M579,755.4c-0.1,0.3-0.5,0.5-0.8,0.4
		c-0.3-0.1-0.5-0.5-0.4-0.8c0.1-0.3,0.5-0.5,0.8-0.4C578.9,754.7,579.1,755,579,755.4z"/>
</g>
</svg>
