<?xml version="1.0" encoding="utf-8"?>
<!-- Generator: Adobe Illustrator 23.0.0, SVG Export Plug-In . SVG Version: 6.00 Build 0)  -->
<svg version="1.1" id="Capa_1" xmlns="http://www.w3.org/2000/svg" xmlns:xlink="http://www.w3.org/1999/xlink" x="0px" y="0px"
	 viewBox="0 0 266.7 413.6" style="enable-background:new 0 0 266.7 413.6;" xml:space="preserve">
<style type="text/css">
	.Atardecer_x0020_2{fill:#FFFFFF;}
	.st0{fill:#F0B11D;}
	.st1{fill:#D29A18;}
	.st2{fill:#FAC13D;}
	.st3{fill:#E6EAEB;}
	.st4{fill:#505B5F;}
	.st5{fill:#D19918;}
	.st6{fill:#C5CCD2;}
	.st7{fill:#32393B;}
	.st8{fill:#677574;}
	.st9{fill:#C6CDD3;}
	.st10{fill:#E52922;}
	.st11{fill:#FDFBF5;}
	.st12{fill:#687574;}
	.st13{fill:#9C9C9C;}
	.st14{fill:#E84E3D;}
	.st15{fill:#E74E3D;}
	.st16{fill:#E74E3E;}
	.st17{fill:#EB6C55;}
	.st18{fill:#ED705E;}
	.st19{fill:#EB6A58;}
	.st20{fill:#C7432C;}
	.st21{fill:#C33F28;}
	.st22{fill:#C1422A;}
	.st23{fill:#4A87C7;}
	.st24{fill:#4A87C6;}
	.st25{fill:#4987C7;}
	.st26{fill:#2E3F4F;}
	.st27{fill:#2E3F50;}
	.st28{fill:#D1991A;}
	.st29{fill:#9E9E9E;}
	.st30{fill:#D79916;}
	.st31{fill:#CC9A18;}
	.st32{fill:#3F93D0;}
	.st33{fill:#D3991D;}
	.st34{fill:#D09C16;}
	.st35{fill:#C4CBD1;}
	.st36{fill:#C2901F;}
	.st37{fill:#3D91CE;}
	.st38{fill:#C7CBCF;}
	.st39{fill:#C1911F;}
	.st40{fill:#595741;}
	.st41{fill:#655C40;}
	.st42{fill:#4C4F47;}
	.st43{fill:#5C5742;}
	.st44{fill:#2D7DB5;}
	.st45{fill:#E5E9E9;}
	.st46{fill:#E5E8E9;}
	.st47{fill:#6C7774;}
	.st48{fill:#6D7874;}
	.st49{fill:#6E7874;}
	.st50{fill:#677575;}
	.st51{fill:#687575;}
	.st52{fill:#A3A29E;}
	.st53{fill:#F6BF3C;}
	.st54{fill:#9F9D97;}
	.st55{fill:#A09D96;}
	.st56{fill:#9F9B94;}
	.st57{fill:#9C9B98;}
	.st58{fill:#9C9B9A;}
	.st59{fill:#CA951B;}
	.st60{fill:#3A464C;}
	.st61{fill:#C4931C;}
	.st62{fill:#665E3D;}
	.st63{fill:#5B5941;}
	.st64{fill:#BB8D1F;}
	.st65{fill:#5E5841;}
	.st66{fill:#38444E;}
	.st67{fill:#3A474A;}
	.st68{fill:#38434D;}
	.st69{fill:#645D3F;}
	.st70{fill:#655C3D;}
	.st71{fill:#655D3F;}
	.st72{fill:#3B454C;}
	.st73{fill:#2C3D4E;}
	.st74{fill:#575542;}
	.st75{fill:#384649;}
	.st76{fill:#4290CE;}
	.st77{opacity:0.52;}
	.st78{fill:url(#XMLID_2_);}
	.st79{fill:url(#XMLID_3_);}
	.st80{fill:url(#XMLID_4_);}
	.st81{fill:url(#XMLID_5_);}
	.st82{fill:url(#XMLID_6_);}
	.st83{fill:url(#XMLID_7_);}
	.st84{fill:url(#XMLID_8_);}
	.st85{fill:url(#XMLID_9_);}
	.st86{opacity:0.47;}
	.st87{fill:url(#XMLID_10_);}
	.st88{fill:url(#XMLID_11_);}
	.st89{fill:url(#XMLID_12_);}
	.st90{fill:url(#XMLID_13_);}
	.st91{fill:url(#XMLID_14_);}
	.st92{fill:url(#XMLID_15_);}
	.st93{fill:url(#XMLID_16_);}
	.st94{fill:url(#XMLID_17_);}
	.st95{opacity:0.45;}
	.st96{fill:url(#XMLID_18_);}
	.st97{fill:url(#XMLID_19_);}
	.st98{fill:url(#XMLID_20_);}
	.st99{fill:url(#XMLID_21_);}
	.st100{fill:url(#XMLID_22_);}
	.st101{fill:url(#XMLID_23_);}
	.st102{fill:url(#XMLID_24_);}
	.st103{fill:url(#XMLID_25_);}
	.st104{filter:url(#Adobe_OpacityMaskFilter);}
	.st105{mask:url(#SVGID_1_);}
	.st106{fill:url(#XMLID_26_);}
	.st107{fill:url(#XMLID_27_);}
	.st108{fill:url(#XMLID_28_);}
	.st109{fill:url(#XMLID_29_);}
	.st110{fill:url(#XMLID_30_);}
	.st111{fill:url(#XMLID_31_);}
	.st112{fill:url(#XMLID_32_);}
	.st113{fill:url(#XMLID_33_);}
	.st114{opacity:0.74;}
	.st115{filter:url(#Adobe_OpacityMaskFilter_1_);}
	.st116{mask:url(#SVGID_2_);}
	.st117{fill:url(#XMLID_34_);}
	.st118{fill:url(#XMLID_35_);}
	.st119{fill:url(#XMLID_36_);}
	.st120{fill:url(#XMLID_37_);}
	.st121{fill:url(#XMLID_38_);}
	.st122{fill:url(#XMLID_39_);}
	.st123{fill:url(#XMLID_40_);}
	.st124{fill:url(#XMLID_41_);}
	.st125{fill:#333A51;}
	.st126{opacity:0.63;}
	.st127{fill:#D6D4D4;stroke:#D6D4D4;stroke-width:4.9763;stroke-miterlimit:10;}
	.st128{fill:none;stroke:#FFFFFF;stroke-width:4.9763;stroke-miterlimit:10;}
	.st129{fill:url(#XMLID_42_);}
</style>
<g>
	<path class="st0" d="M13.8,357.6c-1.6-1.4-1.3-3.3-1.4-5.1C8.2,285.3,4.2,218,0.1,150.7c-0.2-4,0-8,1.7-11.7
		c1.5-2.4,3.5-1.4,5.2-0.5c27.1,13.5,54.2,27.1,81.3,40.6c9.2,4.6,18.5,9,27.6,13.9c0.1,0.1,0.2,0.3,0.2,0.4
		c-3.4,17.4,0,34.7,0.9,52.1c2.7,52,6.2,103.9,9.3,155.8c0.3,4.1,1,8.1,0.6,12.2c-25.2-12.5-50.5-25-75.7-37.5
		c-10.1-5-20.2-9.9-30.3-14.9C18.1,361,16.1,358.9,13.8,357.6z"/>
	<path class="st1" d="M125.2,401.6c-1.4-23.2-2.8-46.4-4.2-69.5c-1.6-26.2-3.1-52.3-4.8-78.5c-1-16.1-2.2-32.1-3-48.2
		c-0.2-4.1,1.3-8.2,2.5-12.1c-0.3-4.7,2.8-7.7,5.6-10.7c12.2-12.5,24.2-25.1,36.8-37.3c5-4.8,7.3-10,6.4-16.9
		c-0.6-4.3-0.6-8.6-0.7-12.9c-0.1-3.6,1.1-6.6,4.1-8.6c13.5-9.1,27.1-18.1,40.8-27c0.7-0.5,1.5-0.7,2.3-0.9c3,0.3,3,2.8,3,4.7
		c0.1,3.3,1,6.3,2.5,9.2c-2.1,4.4-5.8,7.6-8.3,11.7c-6.8,11.1-11.1,23-11.2,36.1c0,3.9,0.5,7.6,2,11.2c3.7,9.6,11.9,13.3,21.5,9.8
		c2.9-1.1,5.6-2.8,8.8-3.1c3.6,1.9,1.1,5.6,2.4,8.2c0.2,3.8,0.5,7.6,0.7,11.3c0.5,20.8,2.2,41.4,3.6,62.1c1.5,3.4,0.4,6.1-2.4,8.2
		c-14.4,11.2-22.6,26.1-26.1,43.8c-1.3,6.8-0.9,13.5,0.9,20.2c7.1,12.1,12.3,14,25.3,8.7c1.7-0.7,3.5-1,5.3-1.3
		c2.4,0.6,1.7,2.6,1.7,4c-0.3,6.5-2.1,12.5-6.6,17.4c-1.9,0.8-3,4-4.5,3.5c-4.3-1.2-4.7,2.1-6.3,4.3c-2.5,3.2-5.9,5.5-9.6,6.8
		c-3.7,1.2-7.8,1.3-11.1,3.9c-0.9,0.7-2.5,0.7-3.2-0.3c-1.2-2,1.8-2.5,1.8-4.1c1.2-7.3,0-14.6-0.5-21.9c-1.3-22.4-2.6-44.8-4.1-67.2
		c-0.1-1.3,0.6-3.5-1.5-3.6c-1.9-0.1-2.6,1.8-2.8,3.6c-0.5,4.6,1.3,9.3-0.1,13.9c-0.3,0.6-1.1,1.2-1,1.6c0.4,4.3-0.4,8.3-2.5,12.1
		c0.2,1.7-0.1,3.2-1.1,4.6c-2.9,2.7-7.1,2.6-10.2,5c-1.4,1.1-3.1,0-4-1.6c-1.5-5-0.8-10.3-1.5-15.4c-0.2-1.2-0.1-2.3-0.2-3.5
		c-0.5-6-1.6-6.6-6.5-3.4c-6.6,4.3-13.1,8.6-19.6,12.9c-12.4,8.2-12.4,8.2-11,23c0.6,6.3,0.7,12.6,1.1,19c0.2,2.3-0.2,4.7,1.8,6.5
		c3.3,0.2,6.1-1.3,8.7-3c8.9-6,18.3-11.2,26.3-18.6c2-1.8,4.4-2.8,7-3.7c0.5,0,1,0.1,1.4,0.4c1.2,1.6,0.9,3.6,1.3,5.5
		c0,0.5-0.2,0.9-0.6,1.2c-2.4,1.2-4.7,2.5-7.1,3.8c-0.5,0.2-1,0.4-1.4,0.7c-12,7.4-23.2,16.2-35.7,22.8c-0.6,0.3-1.3,0.2-2.4-1.1
		c11.4-7.6,22.8-15.1,34.1-22.6c-10.5,6.9-21,13.9-31.5,20.8c-1.6,1-3.3,1.9-1.8,4.2c2.4,8.5,1.5,17.3,2.3,26
		c0.4,4.1,1.3,8.2,0,12.3c0.1,4,1.8,4.9,5.5,2.7c5.7-3.4,11.1-7.2,16.6-10.9c3.9-2.5,7.8-5,11.6-7.7c1.3-0.9,3.1-1.5,3.3-3.4
		c0.2-1.3,1.1-2,2-2.6c0.9-0.3,1.5-0.8,0.7-1.8c-0.1-0.4,0-0.8,0.2-1.2c2.6-1.1-0.7-1.6-0.2-2.5c-0.1-0.5,0-0.9,0.3-1.3
		c3.2-3.1,4,1.8,6.2,1.9c1-0.4,1.7-1.2,2.4-2c0.5-0.5,1-1,1.6-1.5c0.9-0.7,1.9-1.2,3-1.4c5.5,2,6.2,4.7,2,8.3
		c-1.1,1-2.4,1.8-3.7,2.6c-17.4,11.5-34.7,23-52.1,34.4C130.6,408.1,129.8,407.9,125.2,401.6z"/>
	<path class="st2" d="M211.9,79.3c-13.9,9.2-27.6,18.5-41.6,27.4c-4.1,2.6-5.6,5.7-5.2,10.3c0.4,5,0.4,9.9,1,14.9
		c0.5,4.9-1.2,8.6-4.6,12c-13.1,13.1-26,26.4-39,39.5c-2.9,2.9-4.7,6.4-6.7,9.8c-7.5-1.5-13.6-6-20.2-9.2
		c-29.8-14.6-59.4-29.6-89-44.5c-1.5-0.8-3-1.6-4.7-0.5c1.4-5.5,4.8-9.7,8.7-13.6c5.1-5.2,10.2-10.4,15.3-15.6c0.4-1.6,1.1-3,2.5-4
		c6.1-4.9,10.9-11.1,16.8-16.2c0.8-0.7,1.8-1,2.3-2c4.3-2.9,5.9-6.9,5.4-12c-0.5-5-0.6-10-0.8-14.9c-0.2-4.9,1.5-8.4,5.9-11.2
		c12.3-7.9,24.4-16.2,36.6-24.3c2.4-4.5,5.9-3.5,9.4-1.7c12.9,6.6,25.9,12.9,38.9,19.4c21.1,10.6,42.3,21.2,63.5,31.7
		C208.4,75.5,211.4,76,211.9,79.3z"/>
	<path class="st3" d="M226.3,61.4c1.1,2.1,3.2,2.8,5,3.9c-3.3,5.1-8.7,7.5-13.9,10c-2.3,1.1-4.8-1-7-2.1
		c-20.3-9.9-40.4-20.2-60.8-30.2C132.4,34.5,115.4,25.3,98,17c-1.7-0.8-3.2-1.7-4-3.5c3.7-2.5,7.6-4.8,11.2-7.6
		c2.3-1.7,4.4-1.9,6.9-0.6c18.8,9.5,37.7,18.9,56.5,28.4c3.5,1.7,7,3.4,10.5,5c2.9,1.3,5.7,2.6,8.6,3.9c2.7,2.8,6.7,3.2,9.7,5.6
		c3.6,0.8,6.1,4.1,10,4.2c2.4,2.7,6.1,3.1,9.1,4.7C218.5,61.3,222.9,60.4,226.3,61.4z"/>
	<path class="st4" d="M248.6,246.7c9.4,2.8,13.8,9.6,13.8,18.9c0.1,22-8.7,39.4-27.4,51.4c-5.2,5.5-13.7,5.5-21.5-0.2
		c-8.1-13.1-5.9-26.4-0.5-39.7c3.9-9.7,9.9-18,18.1-24.7C236.1,248.4,242,246.3,248.6,246.7z"/>
	<path class="st5" d="M188.3,294c-0.8-0.5-1.7-0.9-3.1-1.7c4.6-1.5,6.3-4.1,4.1-8.5c-1-2,1.2-2.7,2.1-3.9c2,1.6,1.7,3.9,1.8,5.9
		c1.3,22,2.7,44,3.8,66c0.2,3.8,1.2,4.7,4.6,4c2.9,3.1-2.2,1.5-1.8,3.1c0.2,0.1,0.7,0.4,0.7,0.4c4.9-4.5,12.3-2.9,17.4-7.1
		c2.1-1.8,4.6-2.9,5.4-6.1c0.7-2.7,1.6-2.8,5.2-1.8c1.4,0.4,1.8-0.5,2.3-1.1c0.9-1,1.4-2.4,3.1-1.8c-0.4,1.8-1.7,2.8-3.2,3.5
		c-2.3,3.2-7.1,3.5-8.7,7.4c-2.6,3.5-6.2,5.6-10.1,7.3c-2.3,0.3-4.2,1.4-6.2,2.7c-24.7,16.4-49.4,32.7-74.1,49
		c-1.4,1-2.6,2.7-4.8,2.2c-2.3-3.8-0.8-8.1-1.8-12.1c0.6,0.1,1.7,0,1.8,0.3c2.5,6.6,5.8,3,9.1,0.9c18.5-12.3,37.1-24.5,55.6-36.8
		c1.5-1,3.1-1.8,3.3-3.9c-2.2,0.4-1.2-4.3-4.2-2.7c-1.6-1-0.8-2.4-0.6-3.8c-0.1-0.8,1.3-1.8-0.5-2.2c-1.1,0.5-1.8,1.5-2.7,2.2
		c-2.1,1-2.5,2.9-2.7,5c-0.1,1.1,0.2,2.1-0.2,3.2c-0.3,1.7-0.5,1.6-1.4,0.2c-1-1.5-1.9-4.2-4.7-2.1c-1.4-0.4-1.6-1.6-1.7-2.7
		c-0.5-11.1-1.8-22.1-1.8-33.2c1.4-2.5,3.8-3,6.4-3.1c1.1,0.4,0.9,1.4,1,2.3c-0.1,1.3,0.1,2.6,1.2,3.5c0.3,0.3,0.5,0.7,0.7,1
		c0.3,0.7,0.3,1.5,0.1,2.2c2.9,1.4,2.8,3.7,2,6.3c-0.6,0.5-1.2,0.9-1.9,1.3c1.4-0.6,2.3-1.9,3.7-2.5c0,0,0.5,0,0.1-0.2
		c-2.3-2.2-2.5-4.5-0.3-7c0.4-0.5,0.6-0.9,0.2-0.4c0,0-0.3-0.1-0.4-0.2c-0.5-1,0-1.8,0.3-2.7c0.3-0.7,0.6-1.5,0.8-2.2
		c0.1-0.6,0.3-1.2,0.4-1.8c0.3-1.6,1-3.3-1.2-4.1c-2.4,0.1-3.3,1.9-4.5,3.5c-0.4,0.3-0.8,0.5-1.2,0.4c-1.6-1.6-1.6-3.5-1.1-5.5
		c0.6-0.8,1.4-0.9,2.3-1.2c2.1-0.7,3.5-2.2,4.1-4.3c0.4-1.2,0.7-2.4,0.9-3.6c0.1-1.1-0.2-2-1.5-2c-1.4,0.1-2.3,1-3.2,2
		c-0.4,0.5-0.8,1-1.2,1.5c-1,1.4-1.2,3-1.2,4.7c0,0.9-0.1,1.7-0.8,2.4c-11.5,8-22.4,16.8-34.5,23.9c-2.7,1.6-5.7,3.1-9.1,2.6
		c0.5-2.6,2.8-3.6,4.7-4.9c8.7-5.8,17.4-11.7,26.3-17.3c4.3-2.7,6.5-5.8,5.6-11c-0.4-2.4-1.2-5.3,1.3-7.4c0.8,1.1,1.9,1.4,3,0.8
		c1.2-0.7,8.3-4.1,9.9-4.5c0.5,0,0.8,0.3,0.9,0.8c-0.8,1.3-2.3,1.7-3.3,2.7c0.9-0.7,1.8-1.2,2.7-1.9
		C189.3,298.1,187.8,295.9,188.3,294z"/>
	<path class="st6" d="M94,13.5c21.7,10.8,43.4,21.6,65.1,32.4c18.3,9.1,36.6,18.2,54.8,27.4c2.3,1.1,3.9,1.1,5.9-0.3
		c3.8-2.7,7.7-5.2,11.6-7.8c0.2,0.3,0.4,0.6,0.6,0.9c-1.5,3.4-4.9,4.9-7.8,6.6c-4.2,2.4-5.5,5.6-5,10.2c0.4,3.5,1.6,7.2-0.9,10.5
		c-0.8,0.4-1.6,0.2-2.2-0.5c-2.8-1.4-3-3.9-3.1-6.6c-0.1-2.4,0.4-4.9-1-7.2c-8.8-5.7-18.5-9.7-27.8-14.4
		c-26.7-13.5-53.5-26.7-80.2-40.2c-3.6-1.8-6.4-2.1-9.5,0.4C94.2,21.2,94.1,17.4,94,13.5z"/>
	<path class="st3" d="M47.3,87.6c-0.4,0.7-0.9,1.4-1.3,2.1C39.7,95,33.6,100.4,26.1,104c-6.1,0-10.8-3.5-15.6-6.6
		c1.5-3.5,5.3-4.3,7.9-6.4c1.4-1.2,3.2-1.8,4.5-3.1c6.2-6.1,12.5-6.1,19.3-1.1C43.7,87.9,45.4,88.7,47.3,87.6z"/>
	<path class="st7" d="M248.6,246.7c-3.1,0.9-6.4,1.6-9.4,2.8c-10.6,4.2-17,12.8-22.1,22.4c-6.3,11.6-9.6,23.8-5.9,37.2
		c0.7,2.6,3.3,4.3,2.9,7.2c-2.9,0.2-4.9-1.5-6.7-3.5c-4.5-15-0.2-28.8,6.4-42.1c4.5-9.1,10.8-17.1,19.2-23c2.8-2,2.6-4.7,3.1-7.4
		C240.2,242.5,244.4,244.6,248.6,246.7z"/>
	<path class="st8" d="M207.3,312.8c2.2,1.2,4.5,2.3,6.7,3.5c6.9,4.2,13.9,4.8,21.1,0.7c0.8,1.7,2.8,1.7,3.9,2.9
		c-2.9,2-6,3.4-9.4,4.5C219.3,327.6,212.3,323.9,207.3,312.8z"/>
	<path class="st9" d="M10.5,97.4c5.1,1.2,9.5,3.8,13.9,6.5c1.4,0.9,3,1.6,4.2,2.9c-1,0.9-1.2,2.6-2.8,3c-3-3-7-4.3-10.7-5.8
		C11.8,102.6,10.3,100.8,10.5,97.4z"/>
	<path class="st10" d="M212.1,359.8c2.1-4.1,6.8-5.1,9.8-8.2c0.3-0.3,0.7-0.4,1.2-0.2C223,355.6,216.4,360.6,212.1,359.8z"/>
	<path class="st11" d="M13.8,357.6c2.7,0.7,5,2.1,7.3,3.6C17.5,362.2,15.6,359.9,13.8,357.6z"/>
	<path class="st1" d="M223,351.3c-0.4,0.1-0.8,0.2-1.2,0.2c2.4-3,6-4.4,9.1-6.5C229.1,348.1,225.5,349,223,351.3z"/>
	<path class="st4" d="M238.7,85.6c3.4,0.9,6.1,3.1,8.9,4.9c2.5,2.9,3.5,6.5,4.8,9.9c0.7,5.1,0.3,10.3,0,15.4
		c-0.8,2.9-1.5,5.9-2.3,8.8c-1.1,2.7-2.3,5.4-3.4,8.1c-1.5,2.6-3,5.2-4.5,7.7c-2.1,2.7-4.3,5.3-6.4,8c-1.5,1.1-3,2.2-4.6,3.2
		c-4.7,3.5-8.6,8.4-15.3,8.1c-4.4-0.2-8.6-0.9-11.9-4.1c-11.6-21.1-3.2-39,9.1-56.1c3.5-4.9,8.5-8.3,13.6-11.4
		C230.5,86.1,234.5,85.5,238.7,85.6z"/>
	<path class="st12" d="M204.4,155c7.1,4.5,14.2,5.4,21.5,0.1c1.7-1.3,3.6-2.3,5.4-3.4c0,0.3,0,0.6,0,0.9c-1.7,1.1-3.3,2.2-5,3.3
		c0.1,1.9,2.2,1.6,3,2.7c-3.9,2.9-8.3,4.8-13.1,5.5c-8.5,1.3-15.4-3.3-18.5-12.1C200.9,151,202.8,152.5,204.4,155z"/>
	<path class="st7" d="M204.4,155c-2.2-1-4.4-1.9-6.6-2.9c-3-7.8-2.4-15.7-0.7-23.5C200,115,206.2,103,216,93
		c0.6,0.1,1.1,0.2,1.7,0.4c5.1-3.7,10-7.8,15.8-10.4c1.5,0.6,3.1,1.3,4.6,1.9c0.2,0.2,0.5,0.5,0.7,0.7c-4.2,2.2-9.1,2-13.2,4.9
		c-17.4,12.3-25.5,29.1-25.7,50.1C199.8,145.9,203.1,150.1,204.4,155z"/>
	<path class="st13" d="M233.5,83c-4.5,4.7-9.6,8.3-15.8,10.4c1.5-4.8-0.1-9.5-0.1-14.3c0-2.5,0.4-4,2.6-5.3c4-2.4,7.8-5.1,11.7-7.6
		C232.4,71.8,232.9,77.4,233.5,83z"/>
	<path class="st14" d="M58,171.4c1.2,1.7,3.1,3.1,2.5,5.6c-2.4,2.5-5.2,4.3-8.4,5.6c-5.6-1.4-6.6-3.6-3.9-8.3
		c1.4,1.5,2.5,0.6,3.8-0.3C53.8,172.8,55.5,171.1,58,171.4z"/>
	<path class="st15" d="M41.3,162c2.7,0.8,2.5,3.3,3.1,5.3c-2.7,2.5-5.6,4.6-9.1,5.9c-3.8-0.8-5.4-2.9-4.3-6.8
		C35,166.2,37.1,161.8,41.3,162z"/>
	<path class="st16" d="M76.3,180.9c1.4,1.7,2.9,3.4,2,6c-2,2.1-4.3,3.7-7.1,4.6c-5.1,0.7-6.1-0.3-6-5.8c2.5-0.1,4.2-1.8,6.1-3
		C72.8,181.7,74.3,180.5,76.3,180.9z"/>
	<path class="st17" d="M76.3,180.9c-2.6,2-5.7,3.2-7.9,5.7c-1.8,2.1-2.4,0.1-3.2-0.9C68,179.9,72,178.1,76.3,180.9z"/>
	<path class="st18" d="M58,171.4c-2.9,2.2-6.4,3.8-8.8,6.8c-2.1-0.9-0.5-2.6-1-3.8C50.9,171.6,53.3,167.4,58,171.4z"/>
	<path class="st19" d="M41.3,162c-2.4,1.8-4.9,3.3-7,5.3c-1.9,1.8-2.4,0.3-3.2-0.9C34.5,161.5,37.7,160.1,41.3,162z"/>
	<path class="st20" d="M35.3,173.3c3-2,6-4,9.1-5.9C42.4,171,39.2,172.7,35.3,173.3z"/>
	<path class="st21" d="M52.1,182.6c2.8-1.9,5.6-3.7,8.4-5.6C58.7,180.3,55.8,182.1,52.1,182.6z"/>
	<path class="st22" d="M71.3,191.5c2.4-1.5,4.7-3.1,7.1-4.6C76.8,189.7,74.5,191.3,71.3,191.5z"/>
	<path class="st23" d="M129.2,255.1c-0.2-4.4-0.3-8.8-0.5-13.1c-0.1-2.2,0-4.2,1.1-6.1c0.1-1.7,1.6-2,2.7-2.7
		c28.3-18.7,56.6-37.4,84.8-56.1c1-0.6,1.8-1.5,3.1-1.5c2.5,0.2,2.7,1.9,2.7,3.9c0.2,5.4,0.6,10.9,0.9,16.3c-0.2,1-0.8,1.8-1.4,2.5
		c-11.9,8.5-24.3,16.3-36.5,24.4c-15.1,10-30.2,20-45.3,30c-1.9,1.3-3.9,2.5-5.4,4.3C130.7,259.5,130.7,259.5,129.2,255.1z"/>
	<path class="st24" d="M221.8,206.9c1,0,2.6-0.3,2.6,0.6c0.1,7.5,3.4,15-0.6,22.3c-0.5,0.9-1.5,1.2-2.2,1.8
		c-27.1,17.8-54.1,35.8-81.2,53.6c-2.3,1.5-4.6,3.4-7.6,3.5c-1.3-0.2-1.4-1.2-1.4-2.2c0.2-6.7-2.4-13.4,0.4-20
		c2-2.7,4.5-4.8,7.3-6.6c24.6-16.2,49.2-32.5,73.7-48.8C215.7,209.3,218.7,208.1,221.8,206.9z"/>
	<path class="st23" d="M174.4,301.9c-0.1,0.3-0.3,0.7-0.2,0.9c2.9,10.9-1.7,17.5-11.3,22.6c-9.2,4.9-17.5,11.3-26.3,17.1
		c-2.5-0.4-1.8-2.5-1.9-4c-0.8-11.1-1.4-22.2-2.1-33.3c-0.3-3.6,1.1-6,4-7.9c10.5-6.8,20.9-13.7,31.3-20.7c3.2-2.2,4.7-1.6,4.9,2.4
		C173.2,286.7,173.8,294.3,174.4,301.9z"/>
	<path class="st25" d="M174.6,325.9c1.7,1.8,1.2,4.1,1.3,6.2c0.8,9.9,1.4,19.9,2.1,29.8c0,0,0,0,0,0c0,1.2,0.8,2.4,0,3.6l0,0.1
		c0.1,1.4-0.7,2.3-1.8,3c-2.8,3.4-6.7,5.5-10.3,7.7c-8.9,5.5-17,12.2-26.5,16.8c-3-0.2-2.1-2.5-2.2-4.2c-0.1-11.9-1.1-23.7-2-35.6
		c0-1.7,0.9-2.7,2.3-3.6c11.9-7.8,23.7-15.7,35.6-23.5C173.6,325.8,174.1,325.9,174.6,325.9L174.6,325.9z"/>
	<path class="st25" d="M172.3,175.1c0.4,6.1,0.8,12.3,1.2,18.4c0.2,3.1-0.8,5.3-3.5,7.1c-12.7,8.3-25.3,16.6-37.9,25.1
		c-3,2-4.3,1.8-4.5-2.2c-0.2-6.3-0.7-12.6-1.1-18.9c-0.3-5,1.6-9.2,4.9-12.6c6.4-6.7,13-13.2,19.5-19.9c2.1-1.4,3.7,0.3,5.5,0.9
		c2.9,0.9,5.1,3.7,8.6,3c1.4-0.6,2.5-1.7,3.8-2.2C170.5,173.1,171.9,173,172.3,175.1z"/>
	<path class="st26" d="M201.7,355.9c-1.4,0.8-2.9,1.7-5.1,2.9c-1.7-26.6-3.4-52.7-5.1-78.9c-0.2-4.1-0.1-8.3-0.6-12.4
		c-0.4-3.1,0.7-4.9,3.3-6.5c2.7-1.7,3.3-0.9,3.5,1.9c0.6,11.1,1.4,22.2,2,33.3c1.1,18.1,2.2,36.1,3.2,54.2
		C203,352.3,203.8,354.5,201.7,355.9z"/>
	<path class="st27" d="M184.3,157.6c-0.8-14-1.3-27.9-2.6-41.9c-0.5-5.3,1.6-7.5,6.5-9.4c0.5,8.4,1.1,16.5,1.6,24.6
		c1,16.8,1.9,33.6,3.2,50.3c0.4,4.9-1.2,7.6-6.4,9.1c-0.6-8.3-1.2-16.5-1.8-24.8c0-2.2,1.1-4.5-0.1-6.7
		C184.3,158.5,184.2,158,184.3,157.6z"/>
	<path class="st28" d="M129.2,255.1c1.1,3.9,3.1,3.3,5.4,1c1.1-1.5,2.8-2.3,4.4-3.3c26.5-17.5,53-35.1,79.5-52.6
		c1.5-1,3.3-1.7,4.3-3.3c0.4-0.4,0.8-0.8,1.3-1.2c0.6,2.3,0.6,4.3-1.9,5.9c-1.8,1.2-3,3.2-3.8,5.3c-0.7,2.1-2.6,2.9-4.3,4
		c-25.1,16.6-50.3,33.3-75.4,49.9c-1.6,1.1-3.1,2.6-5.4,2.4c0.4-2.4,2.6-2.9,4.2-3.9c24.4-16.2,48.9-32.4,73.4-48.6
		c1.5-1,3.3-1.6,4.7-4.3c-29.1,19.3-57.4,37.9-85.4,56.5C130.7,260.7,125.9,258.5,129.2,255.1z"/>
	<path class="st3" d="M184.3,157.6c0.2,0.2,0.5,0.4,0.7,0.6c1,2.5-1,3.6-2.5,4.6c-5.3,3.6-10.5,7.4-16.1,10.4
		c-6.5,0.7-11.5-2.3-15.8-6.8l0,0c1-1.4,2.5-2.2,3.9-3c3.9-2.2,7.2-5.2,9.5-8.8c-1.8,0.4-3.6-0.4-3.6-2.4c0.1-2.4,2.6-3,4.6-3.7
		C171.4,151.6,177.9,154.6,184.3,157.6z"/>
	<path class="st5" d="M137.3,388.8c0.9,1.1-0.2,2.9,1.4,3.8c7.4-3.4,13.5-8.7,20.5-12.9c5.6-3.3,10.5-7.9,16.7-10.3
		c1.6,2.1,0.4,3.2-1.4,4.3c-10.1,6.6-20.2,13.3-30.2,20c-2.8,1.9-5.6,1.5-7.9-0.1C134.7,392.4,136.2,390.3,137.3,388.8z"/>
	<path class="st29" d="M164.7,172.9c5.7-3.8,11.4-7.5,17-11.3c1.3-0.9,3.2-1.3,3.2-3.4c2.4,2.5,2.2,5-0.3,7.3
		c-4.1,3.2-9.6,4.6-12.3,9.6c-3.5-2.6-4.5,2.5-7.2,2.3C162.9,176.1,163.6,174.5,164.7,172.9z"/>
	<path class="st28" d="M221.8,206.9c-30,19.9-60,39.8-90,59.6c-1.4-2.3,0.5-2.2,1.9-2.5c0.6-1.3,1.9-1.8,3-2.5
		c26.2-17.3,52.4-34.7,78.6-52c1.1-0.7,2.1-1.7,3.5-1.8C219.8,207.2,220.6,206.4,221.8,206.9z"/>
	<path class="st30" d="M220.3,175.6c-28.4,18.9-56.9,37.7-85.3,56.6c-1.8,1.2-3.5,2.5-5.3,3.7c-0.3-2.2,1.7-2.7,3-3.5
		c27.8-18.5,55.7-36.9,83.6-55.3C217.5,176.3,218.6,175.1,220.3,175.6z"/>
	<path class="st31" d="M222,230.7c0.6-0.3,1.2-0.5,1.9-0.8c-0.4,0.6-0.8,1.2-1.2,1.8c-0.6,1.3-1.9,1.8-3,2.5
		c-27,17.9-54.1,35.8-81.1,53.6c-1.1,0.7-2.1,1.7-3.5,1.8c-0.5-0.1-0.9-0.2-1.4-0.3c0.4-1.2,1.6-1.7,2.5-2.3
		c27.7-18.3,55.4-36.7,83.1-55C220.2,231.5,221,230.9,222,230.7z"/>
	<path class="st32" d="M222,230.7c-26.4,17.5-52.8,35-79.2,52.5c-3.1,2-6.1,4.1-9.2,6.1c-0.3-0.1-0.6-0.3-0.8-0.5
		c28.7-19,57.3-38,86-57C219.8,231.2,220.7,230.4,222,230.7z"/>
	<path class="st33" d="M135.1,289.6c29.2-19.3,58.4-38.6,87.6-57.9c-0.2,2-2,2.5-3.4,3.4c-26.6,17.6-53.2,35.2-79.8,52.8
		C138.2,288.7,137,290.1,135.1,289.6z"/>
	<path class="st34" d="M218.9,207.8c-28.4,18.7-56.7,37.5-85.1,56.2c-0.2-0.3-0.4-0.6-0.6-0.8c28.4-18.8,56.7-37.5,85.1-56.3
		C218.5,207.2,218.7,207.5,218.9,207.8z"/>
	<path class="st5" d="M174.6,325.9c-12.2,7.9-24.4,15.9-36.7,23.8c-1.4,0.9-1.7,2.4-2.6,3.5c-1.1-1.8-1.8-3.8,0.3-5.3
		c12.4-8.3,24.8-16.4,37.7-23.9c-12.4,8.2-24.8,16.4-37.5,24.8c1.9,0.9,2.6-0.4,3.5-1c10.1-6.6,20.2-13.4,30.4-20
		C171.2,326.8,172.5,325.1,174.6,325.9z"/>
	<path class="st35" d="M164.7,172.9c0,1.5-0.6,3.1,0.4,4.5c-3.7,0.7-5.9-2.5-9-3.4c-1.7-0.5-3.1-2-5-2c-0.9-1.8-1.2-3.7-0.4-5.6
		C155.2,168.8,159.7,171.5,164.7,172.9z"/>
	<path class="st36" d="M181.8,322.2c0.3-0.2,0.6-0.4,0.9-0.6c0.9-2,2.4-3.1,4.5-3.5c2.8,0.6,2.1,2.9,2.4,4.8
		c-0.1,0.6-0.2,1.1-0.4,1.7c-2,1.8-3.2,5.1-6.8,3.3c-1.1-0.9-1.2-2.1-1.5-3.4c0-0.6,0-1.2,0-1.8
		C181.2,322.5,181.5,322.3,181.8,322.2z"/>
	<path class="st37" d="M175.9,369.5c-10.8,7.1-21.6,14.2-32.5,21.2c-1.4,0.9-2.5,2.8-4.7,1.9c12.8-8.4,25.5-16.8,38.3-25.3
		c0.5,0.1,0.6,0.4,0.5,0.8C177.6,369.4,176.2,368.7,175.9,369.5z"/>
	<path class="st38" d="M165,148.6c-5.2,3.5-5.2,3.5,0.2,6.5c-3.9,5.1-9.4,8.1-14.6,11.3c0.8-2.3,3.1-2.8,4.8-4.1
		c2.7-2,6.3-2.9,4.1-8.1C157.8,150.5,161.9,149.3,165,148.6z"/>
	<path class="st39" d="M190.8,355.7c0,1.2,0,2.4,0,3.6c-0.9,0.6-1.9,1.1-2.8,1.7c-2.4-1.9-1.1-4-0.4-6.1c0.5-1.1,0.9-2.4,2.5-2.5
		C191.6,353.3,191.4,354.5,190.8,355.7z"/>
	<path class="st40" d="M188,355.2c0.3,1.9-1,3.9,0,5.8c-0.5,0.4-0.9,0.8-1.4,1.1c-0.5-0.1-0.9-0.4-1.2-0.7c-0.8-2.2-0.4-4.2,1.2-5.9
		C187.1,355.2,187.6,355.1,188,355.2z"/>
	<path class="st41" d="M187.8,298.7c-0.2-0.2-0.3-0.3-0.5-0.5c0.3-1.4-0.2-3,1.1-4.1c0.9,1.9,1.4,3.8,0.2,5.7
		C187.8,299.7,187.6,299.3,187.8,298.7z"/>
	<path class="st42" d="M185.9,361.1c0.3,0.4,0.5,0.7,0.8,1.1c0.2,2.3-1.6,1.1-2.6,1.5c-0.9-0.9-1.8-1.8-0.9-3.1
		C184.2,360.3,185.1,360.6,185.9,361.1z"/>
	<path class="st43" d="M180.1,316.1c-0.1-0.8-0.1-1.5-0.2-2.3c0-0.3,0.2-0.6,0.4-0.7c0.2-0.1,0.4-0.2,0.4-0.1c1.1,0.2,2,0.8,2.6,1.8
		c0.2,0.7-0.1,1.2-0.4,1.8c-0.7,0-1.5,0.1-2.2,0.1C180.6,316.4,180.4,316.2,180.1,316.1z"/>
	<path class="st5" d="M178.1,365.4c0-1.2,0-2.4,0-3.6C178.7,363,182.4,364.2,178.1,365.4z"/>
	<path class="st5" d="M177.5,368.2c-0.2-0.3-0.4-0.6-0.5-0.8c0.4-0.6,0.7-1.2,1.1-1.9c0.2,1.2,2.5,0.4,2.1,1.9
		C180,367.8,178.4,367.9,177.5,368.2z"/>
	<path class="st25" d="M143.6,150.1c-9.1,9.4-18.2,18.8-27.2,28.2c-2.2,2.3-4.1,1.1-6.2,0C83.6,165,57,151.7,30.4,138.5
		c-3.6-1.8-7.1-3.6-10.7-5.3c-1.5-0.7-2.1-1.5-0.7-2.9c9.6-9.6,19.2-19.2,28.8-28.8c3.4,1,3.7,4.1,4.4,6.7c1,3.5,3,5.8,6.3,7.2
		c2.3,1,4.6,2.1,6.7,3.4c7.7,4.9,15.9,7.4,25.1,5.5c3.7-0.8,7.2,0.3,10.6,2.1c13.2,6.8,26.4,13.6,39.5,20.3
		C141.9,147.4,143.7,147.9,143.6,150.1z"/>
	<path class="st44" d="M143.6,150.1c-8.2-5.3-17.4-8.9-25.9-13.7c-2.6-1.5-5.6-2.3-8-4c-8.9-6.1-18.4-8.2-29.2-6.2
		c-6.2,1.1-10.8-4.5-16.4-6.5c-1.2-0.4-2.3-1.6-3.5-1.9c-5.8-1.6-9.3-5.4-10.3-11.3c-0.3-1.9-1.4-3.3-2.5-4.8
		c9.6-11.6,9.6-11.5,22.6-5c26.5,13.3,53.1,26.6,79.7,39.8c3.5,1.8,5.4,2.9,1.2,6.1C148.6,144.6,146.2,147.5,143.6,150.1z"/>
	<path class="st45" d="M189.8,87.7c-4.9,2.3-10.7,2.9-16.6,0.4c-3.1-1.3-4.7-3.6-4.6-7c0-3.2,1.7-5.3,4.4-6.6
		c5.5-2.7,11.2-3.2,16.9-0.7c2.8,1.2,4.6,3.3,4.6,6.5C194.6,83.4,193.2,85.7,189.8,87.7z"/>
	<path class="st46" d="M88.4,32.6c5.6-3,11.4-3.4,17.2-1c2.8,1.1,4.5,3.3,4.7,6.5c0.3,3.1-1.2,5.1-3.6,6.6
		c-5.5,3.3-11.2,3.8-17.2,1.6c-3.1-1.2-4.8-3.3-5.1-6.7C84.2,36.2,85.8,34.2,88.4,32.6z"/>
	<path class="st47" d="M161.7,67.2c0.2,0.2,0.4,0.4,0.6,0.6c1.8,2,1.2,4.3,0.6,6.6c-4.1,2.8-8.3,5.4-12.3,8.4
		c-4.2,3.1-7.1,1.6-9.7-2C146.6,74.4,153.2,69.2,161.7,67.2z"/>
	<path class="st48" d="M130.8,58.4c-4.4,3-8.8,5.9-13.2,9c-1.6,1.1-3.2,1.7-5,0.5c-1.1-0.7-2.8-0.8-3-2.3c-0.3-1.7,1.5-2.1,2.5-2.7
		c6.1-3.6,11.3-8.6,18.1-11.2C132.3,53.8,131.5,56.1,130.8,58.4z"/>
	<path class="st49" d="M136.7,79.8c-1.8-1.3-5.3-1.2-5.4-3.6c-0.1-2.2,3.1-3,5-4.2c5.2-3.1,9.6-7.5,15.5-9.5
		c2.1,2.6,1.9,5.3,0.5,8.1C147.9,75.2,142.3,77.5,136.7,79.8z"/>
	<path class="st50" d="M120,52.6c-4.5,3.1-9.2,6-13.6,9.3c-3.4,2.5-5.4-0.4-8.6-1.5c7.5-4.9,14.4-9.5,21.4-14.2
		C121,48.2,120.8,50.4,120,52.6z"/>
	<path class="st51" d="M141.6,63.6c-4.5,3.1-9.2,6-13.6,9.3c-2.2,1.6-3.9,0.8-5.9-0.2c-2.2-1.2-2.1-2.1-0.1-3.4
		c6.3-4,12.6-8.1,18.8-12.1C143.5,59,142.1,61.3,141.6,63.6z"/>
	<path class="st52" d="M28.5,106.8c-2.7,1-3.8-0.5-4.2-2.9c7.2-4.7,14.4-9.5,21.6-14.2C40.6,95.9,35.3,102,28.5,106.8z"/>
	<path class="st53" d="M136.7,79.8c5.2-3.5,10.5-7.1,15.7-10.6c0.9-2.6,3.5-3.1,5.4-4.4c1.2,1,4.5-1.6,4,2.4
		c-7,4.5-13.9,9.1-20.9,13.6c-0.3-0.7,1.2-3.3-1.5-1.4C138.5,79.9,137.7,80.3,136.7,79.8z"/>
	<path class="st54" d="M162.9,74.3c-1-2.1-0.6-4.4-0.6-6.6c2.2,0.5,4.3,1.1,5.9,3.1C166.4,72,164.6,73.2,162.9,74.3z"/>
	<path class="st55" d="M130.8,58.4c-0.2-2.2-0.4-4.4-0.6-6.6c2.4,0.1,4.2,1.2,5.9,3.1C134.3,56.1,132.6,57.2,130.8,58.4z"/>
	<path class="st56" d="M157.8,64.8c-0.8,2.7-3.5,3.1-5.4,4.4c-0.2-2.2-0.4-4.4-0.6-6.7C154.1,62.4,155.6,64.5,157.8,64.8z"/>
	<path class="st57" d="M120,52.6c-0.2-2.1-0.5-4.3-0.7-6.4c2.3-0.1,3.7,1.8,6.7,2.5C123.3,50.4,121.7,51.5,120,52.6z"/>
	<path class="st58" d="M141.6,63.6c-0.2-2.2-0.5-4.3-0.7-6.5c2.3,0,3.7,1.8,6.7,2.5C145,61.3,143.3,62.4,141.6,63.6z"/>
	<path class="st3" d="M232.1,268.3c9.7-6.3,16.4-3.2,16.7,6c0.4,10.7-4.4,19.3-12.6,25.8c-2.9,2.3-6.5,3.5-10.3,1.6
		c-3.8-1.9-4.8-5.5-4.8-9.2C221,282,225.6,273.5,232.1,268.3z"/>
	<path class="st59" d="M183.3,315.1c-1-0.4-1.9-0.8-2.2-2c-0.7-1.6,0.3-3.2-0.1-4.7c0.5-0.4,1-0.7,1.5-1.1c1.2-0.7,2.3-1.6,3.6-2.1
		c2.1-0.2,3.3,0.4,2.7,2.8c0,1.1,0.4,2.3-1,3C187.4,313.7,185.7,314.9,183.3,315.1z"/>
	<path class="st60" d="M187.6,328.9c0.7-0.3,1.4-0.6,2.1-1c-1.8,2.6-4.4,4.8-2,8.3c-0.3,1-0.9,1.4-2,1.2c-0.2-2.5,0.7-6-4.1-4.1
		c0.6-0.5,1.2-1.1,1.8-1.6C184.3,330.2,185.3,328.6,187.6,328.9z"/>
	<path class="st61" d="M185.9,361.1c-1,0.5-1.8,0.2-2.6-0.5c0.3-2.4-0.5-5.5,3.5-5.7c0.5,0.2,0.6,0.5,0.3,0.9
		C186.7,357.6,186.3,359.3,185.9,361.1z"/>
	<path class="st62" d="M184.8,351.5c0.6-2.1,2.1-2.9,4.4-3.3C188.8,351,186.7,351.2,184.8,351.5z"/>
	<path class="st63" d="M187.7,318.5c-1.7,1-3.3,2.1-5,3.1c0.1-3.4,2.2-4.6,5.3-4.7C188.2,317.5,188.1,318,187.7,318.5z"/>
	<path class="st64" d="M187.6,328.9c-1.4,0.9-2.8,1.9-4.2,2.8c-0.1-0.7-0.1-1.4-0.2-2.1c1.3-1.7,2.9-2.9,5.1-3.2
		C188,327.3,187.8,328.1,187.6,328.9z"/>
	<path class="st65" d="M187.7,318.5c0.1-0.5,0.2-1.1,0.3-1.6c3.5,1.1,2.8,3.5,1.7,5.9C188.7,321.5,189.1,319.6,187.7,318.5z"/>
	<path class="st66" d="M185.7,337.5c0.7-0.4,1.3-0.8,2-1.2c0.9-0.5,1.6-1.6,3.3-1c-2.9,1.9-5.5,3.6-8.4,5.6
		C182.8,338.7,184.7,338.5,185.7,337.5z"/>
	<path class="st67" d="M183.3,315.1c1.8-1,3.6-2,4.5-4.1c0.4,3.6-2.1,4.6-4.8,5.5C183,316.1,183.1,315.6,183.3,315.1z"/>
	<path class="st68" d="M188.3,326.5c-1.7,1.1-3.4,2.1-5.1,3.2c-0.2-0.1-0.4-0.3-0.6-0.5c-0.9-0.7-0.7-1.2,0.2-1.6
		c2.8,0.3,4.2-2.3,6.5-3.1C188.9,325.2,188.6,325.8,188.3,326.5z"/>
	<path class="st42" d="M187.6,340.2c3.5-0.8,4,0.7,3.9,3.6C190.1,342.5,189.1,341.6,187.6,340.2z"/>
	<path class="st69" d="M185.7,306.1c-1,0.8-1.8,1.8-3.3,1.2c0.7-2.2,2.2-3.3,4.5-3.1C187.1,305.3,185.9,305.4,185.7,306.1z"/>
	<path class="st70" d="M190.8,355.7c-0.3-1-0.5-1.9-0.8-2.9c-0.7-0.1-0.9-0.4-0.6-1c1.2-0.8,2.2-0.6,2.7,0.8
		C192.6,354,192.4,355.2,190.8,355.7z"/>
	<path class="st71" d="M181,308.5c1.7,1.6,0.2,3.2,0.1,4.7c-0.4,0.2-0.7,0.4-1.1,0.6C179.5,311.9,180.3,310.2,181,308.5z"/>
	<path class="st72" d="M185.7,306.1c0.4-0.6,0.8-1.2,1.2-1.9c2.8,0.3,3.2,1.6,1.7,3.8C188.4,306.4,187.5,305.7,185.7,306.1z"/>
	<path class="st73" d="M187.8,298.7c0.2,0.3,0.5,0.7,0.7,1c-1.8,1.2-3.5,2.3-5.3,3.5c-0.1-0.2-0.3-0.4-0.4-0.6
		C184.4,301.3,186.1,300,187.8,298.7z"/>
	<path class="st74" d="M182.8,327.6c-0.1,0.5-0.2,1.1-0.2,1.6c-2.6-0.8-2.2-2.7-1.6-4.7C181.6,325.5,182.2,326.6,182.8,327.6z"/>
	<path class="st75" d="M189.4,351.8c0.2,0.3,0.4,0.7,0.6,1c-1.2,0.3-1.5,1.5-2,2.4c-0.3,0.2-0.7,0.4-1,0.6c-0.1-0.3-0.2-0.6-0.3-0.9
		C187.5,353.8,188,352.3,189.4,351.8z"/>
	<path class="st3" d="M222.6,107c9.3-6.1,16-3.1,16.4,6.1c0.5,11.1-4.2,20.1-13.3,26.4c-7,4.9-13.9,1.4-14.3-7.2
		C210.9,121.3,215.8,112.8,222.6,107z"/>
	<path class="st76" d="M222.8,196.9c0,1.2-0.9,1.7-1.7,2.2c-28.8,19-57.7,38-86.5,57c0.3-1.5,1.6-2.1,2.7-2.8
		C165.7,234.5,194.3,215.7,222.8,196.9z"/>
	<g id="XMLID_201_">
		<g>
			<g id="XMLID_333_">
				
					<ellipse id="XMLID_343_" transform="matrix(1.011184e-03 -1 1 1.011184e-03 -212.6053 307.4337)" class="Atardecer_x0020_2" cx="47.6" cy="260.1" rx="1.5" ry="1.6"/>
				<g id="XMLID_334_">
					<g id="XMLID_340_">
						<path id="XMLID_342_" class="Atardecer_x0020_2" d="M50.3,292.4"/>
						<path id="XMLID_341_" class="Atardecer_x0020_2" d="M84.1,297.5l-36.8,0c-1.5,0-2.7-1.1-2.7-2.5l0-35.1c0-1.4,1.2-2.5,2.7-2.5
							l1.2,0c1.5,0,2.7,1.1,2.7,2.5l0,29.1c0,1.4,1.2,2.5,2.7,2.5l23.8,0c1.5,0,2.7-1.1,2.7-2.5l0-22.3c0-1.4-1.2-2.5-2.7-2.5l-13,0
							c-1.5,0-2.7,1.1-2.7,2.5l0,14.2c0,1.4-1.6,2.5-3.1,2.5l-0.4,0c-1.5,0-2.7-1.1-2.7-2.5l0-20.6c0-1.4,1.2-2.8,2.7-2.8l25.7,0
							c1.5,0,2.7,1.1,2.7,2.5l0,35.1C86.8,296.4,85.5,297.5,84.1,297.5z"/>
					</g>
					<path id="XMLID_339_" class="Atardecer_x0020_2" d="M52.6,293.5"/>
					
						<ellipse id="XMLID_338_" transform="matrix(1.011184e-03 -1 1 1.011184e-03 -221.3015 338.207)" class="Atardecer_x0020_2" cx="58.6" cy="279.9" rx="1.5" ry="1.6"/>
					<path id="XMLID_337_" class="Atardecer_x0020_2" d="M86.4,298.7l-36.8,0c-1.5,0-2.7-1.1-2.7-2.5l0-35.1c0-1.4,1.2-2.5,2.7-2.5
						l1.2,0c1.5,0,2.7,1.1,2.7,2.5l0,29.1c0,1.4,1.2,2.5,2.7,2.5l23.8,0c1.5,0,2.7-1.1,2.7-2.5l0-22.3c0-1.4-1.2-2.5-2.7-2.5l-13,0
						c-1.5,0-2.7,1.1-2.7,2.5l0,14.2c0,1.4-1.6,2.5-3.1,2.5l-0.4,0c-1.5,0-2.7-1.1-2.7-2.5l0-20.6c0-1.4,1.2-2.8,2.7-2.8l25.7,0
						c1.5,0,2.7,1.1,2.7,2.5l0,35.1C89,297.6,87.8,298.7,86.4,298.7z"/>
					
						<ellipse id="XMLID_336_" transform="matrix(1.011184e-03 -1 1 1.011184e-03 -211.4847 312.1649)" class="Atardecer_x0020_2" cx="50.5" cy="261.9" rx="1.5" ry="1.6"/>
					
						<ellipse id="XMLID_335_" transform="matrix(1.011184e-03 -1 1 1.011184e-03 -220.1754 341.6519)" class="Atardecer_x0020_2" cx="60.9" cy="281" rx="1.5" ry="1.6"/>
				</g>
			</g>
		</g>
		<g class="st77">
			<g id="XMLID_322_">
				
					<radialGradient id="XMLID_2_" cx="436.7787" cy="-370.2895" r="40.5888" gradientTransform="matrix(-1 -1.011184e-03 1.011184e-03 -1 504.0999 -76.4541)" gradientUnits="userSpaceOnUse">
					<stop  offset="0" style="stop-color:#FFFFFF"/>
					<stop  offset="8.938220e-03" style="stop-color:#FAFCFE"/>
					<stop  offset="7.323171e-02" style="stop-color:#D4E3F4"/>
					<stop  offset="0.1354" style="stop-color:#B5D0EB"/>
					<stop  offset="0.194" style="stop-color:#9CC3E4"/>
					<stop  offset="0.2478" style="stop-color:#8DBBE0"/>
					<stop  offset="0.2921" style="stop-color:#87B8DF"/>
					<stop  offset="0.6461" style="stop-color:#0061AA"/>
					<stop  offset="0.8409" style="stop-color:#194C7C"/>
					<stop  offset="1" style="stop-color:#1F3A59"/>
				</radialGradient>
				<path id="XMLID_332_" class="st78" d="M46,260.1c0-0.8,0.7-1.5,1.6-1.5c0.9,0,1.6,0.7,1.6,1.5c0,0.8-0.7,1.5-1.6,1.5
					C46.7,261.6,46,260.9,46,260.1z"/>
				<g id="XMLID_323_">
					<g id="XMLID_329_">
						
							<radialGradient id="XMLID_3_" cx="436.7787" cy="-370.2895" r="40.5888" gradientTransform="matrix(-1 -1.011184e-03 1.011184e-03 -1 504.0999 -76.4541)" gradientUnits="userSpaceOnUse">
							<stop  offset="0" style="stop-color:#FFFFFF"/>
							<stop  offset="8.938220e-03" style="stop-color:#FAFCFE"/>
							<stop  offset="7.323171e-02" style="stop-color:#D4E3F4"/>
							<stop  offset="0.1354" style="stop-color:#B5D0EB"/>
							<stop  offset="0.194" style="stop-color:#9CC3E4"/>
							<stop  offset="0.2478" style="stop-color:#8DBBE0"/>
							<stop  offset="0.2921" style="stop-color:#87B8DF"/>
							<stop  offset="0.6461" style="stop-color:#0061AA"/>
							<stop  offset="0.8409" style="stop-color:#194C7C"/>
							<stop  offset="1" style="stop-color:#1F3A59"/>
						</radialGradient>
						<path id="XMLID_331_" class="st79" d="M50.3,292.4"/>
						
							<radialGradient id="XMLID_4_" cx="436.7787" cy="-370.2895" r="40.5888" gradientTransform="matrix(-1 -1.011184e-03 1.011184e-03 -1 504.0999 -76.4541)" gradientUnits="userSpaceOnUse">
							<stop  offset="0" style="stop-color:#FFFFFF"/>
							<stop  offset="8.938220e-03" style="stop-color:#FAFCFE"/>
							<stop  offset="7.323171e-02" style="stop-color:#D4E3F4"/>
							<stop  offset="0.1354" style="stop-color:#B5D0EB"/>
							<stop  offset="0.194" style="stop-color:#9CC3E4"/>
							<stop  offset="0.2478" style="stop-color:#8DBBE0"/>
							<stop  offset="0.2921" style="stop-color:#87B8DF"/>
							<stop  offset="0.6461" style="stop-color:#0061AA"/>
							<stop  offset="0.8409" style="stop-color:#194C7C"/>
							<stop  offset="1" style="stop-color:#1F3A59"/>
						</radialGradient>
						<path id="XMLID_330_" class="st80" d="M84.1,297.5l-36.8,0c-1.5,0-2.7-1.1-2.7-2.5l0-35.1c0-1.4,1.2-2.5,2.7-2.5l1.2,0
							c1.5,0,2.7,1.1,2.7,2.5l0,29.1c0,1.4,1.2,2.5,2.7,2.5l23.8,0c1.5,0,2.7-1.1,2.7-2.5l0-22.3c0-1.4-1.2-2.5-2.7-2.5l-13,0
							c-1.5,0-2.7,1.1-2.7,2.5l0,14.2c0,1.4-1.6,2.5-3.1,2.5l-0.4,0c-1.5,0-2.7-1.1-2.7-2.5l0-20.6c0-1.4,1.2-2.8,2.7-2.8l25.7,0
							c1.5,0,2.7,1.1,2.7,2.5l0,35.1C86.8,296.4,85.5,297.5,84.1,297.5z"/>
					</g>
					
						<radialGradient id="XMLID_5_" cx="436.7787" cy="-370.2895" r="40.5888" gradientTransform="matrix(-1 -1.011184e-03 1.011184e-03 -1 504.0999 -76.4541)" gradientUnits="userSpaceOnUse">
						<stop  offset="0" style="stop-color:#FFFFFF"/>
						<stop  offset="8.938220e-03" style="stop-color:#FAFCFE"/>
						<stop  offset="7.323171e-02" style="stop-color:#D4E3F4"/>
						<stop  offset="0.1354" style="stop-color:#B5D0EB"/>
						<stop  offset="0.194" style="stop-color:#9CC3E4"/>
						<stop  offset="0.2478" style="stop-color:#8DBBE0"/>
						<stop  offset="0.2921" style="stop-color:#87B8DF"/>
						<stop  offset="0.6461" style="stop-color:#0061AA"/>
						<stop  offset="0.8409" style="stop-color:#194C7C"/>
						<stop  offset="1" style="stop-color:#1F3A59"/>
					</radialGradient>
					<path id="XMLID_328_" class="st81" d="M52.6,293.5"/>
					
						<radialGradient id="XMLID_6_" cx="436.7787" cy="-370.2895" r="40.5888" gradientTransform="matrix(-1 -1.011184e-03 1.011184e-03 -1 504.0999 -76.4541)" gradientUnits="userSpaceOnUse">
						<stop  offset="0" style="stop-color:#FFFFFF"/>
						<stop  offset="8.938220e-03" style="stop-color:#FAFCFE"/>
						<stop  offset="7.323171e-02" style="stop-color:#D4E3F4"/>
						<stop  offset="0.1354" style="stop-color:#B5D0EB"/>
						<stop  offset="0.194" style="stop-color:#9CC3E4"/>
						<stop  offset="0.2478" style="stop-color:#8DBBE0"/>
						<stop  offset="0.2921" style="stop-color:#87B8DF"/>
						<stop  offset="0.6461" style="stop-color:#0061AA"/>
						<stop  offset="0.8409" style="stop-color:#194C7C"/>
						<stop  offset="1" style="stop-color:#1F3A59"/>
					</radialGradient>
					<path id="XMLID_327_" class="st82" d="M57,279.9c0-0.8,0.7-1.5,1.6-1.5c0.9,0,1.6,0.7,1.6,1.5c0,0.8-0.7,1.5-1.6,1.5
						C57.7,281.3,57,280.7,57,279.9z"/>
					
						<radialGradient id="XMLID_7_" cx="436.7787" cy="-370.2895" r="40.5888" gradientTransform="matrix(-1 -1.011184e-03 1.011184e-03 -1 504.0999 -76.4541)" gradientUnits="userSpaceOnUse">
						<stop  offset="0" style="stop-color:#FFFFFF"/>
						<stop  offset="8.938220e-03" style="stop-color:#FAFCFE"/>
						<stop  offset="7.323171e-02" style="stop-color:#D4E3F4"/>
						<stop  offset="0.1354" style="stop-color:#B5D0EB"/>
						<stop  offset="0.194" style="stop-color:#9CC3E4"/>
						<stop  offset="0.2478" style="stop-color:#8DBBE0"/>
						<stop  offset="0.2921" style="stop-color:#87B8DF"/>
						<stop  offset="0.6461" style="stop-color:#0061AA"/>
						<stop  offset="0.8409" style="stop-color:#194C7C"/>
						<stop  offset="1" style="stop-color:#1F3A59"/>
					</radialGradient>
					<path id="XMLID_326_" class="st83" d="M86.4,298.7l-36.8,0c-1.5,0-2.7-1.1-2.7-2.5l0-35.1c0-1.4,1.2-2.5,2.7-2.5l1.2,0
						c1.5,0,2.7,1.1,2.7,2.5l0,29.1c0,1.4,1.2,2.5,2.7,2.5l23.8,0c1.5,0,2.7-1.1,2.7-2.5l0-22.3c0-1.4-1.2-2.5-2.7-2.5l-13,0
						c-1.5,0-2.7,1.1-2.7,2.5l0,14.2c0,1.4-1.6,2.5-3.1,2.5l-0.4,0c-1.5,0-2.7-1.1-2.7-2.5l0-20.6c0-1.4,1.2-2.8,2.7-2.8l25.7,0
						c1.5,0,2.7,1.1,2.7,2.5l0,35.1C89,297.6,87.8,298.7,86.4,298.7z"/>
					
						<radialGradient id="XMLID_8_" cx="436.7787" cy="-370.2895" r="40.5888" gradientTransform="matrix(-1 -1.011184e-03 1.011184e-03 -1 504.0999 -76.4541)" gradientUnits="userSpaceOnUse">
						<stop  offset="0" style="stop-color:#FFFFFF"/>
						<stop  offset="8.938220e-03" style="stop-color:#FAFCFE"/>
						<stop  offset="7.323171e-02" style="stop-color:#D4E3F4"/>
						<stop  offset="0.1354" style="stop-color:#B5D0EB"/>
						<stop  offset="0.194" style="stop-color:#9CC3E4"/>
						<stop  offset="0.2478" style="stop-color:#8DBBE0"/>
						<stop  offset="0.2921" style="stop-color:#87B8DF"/>
						<stop  offset="0.6461" style="stop-color:#0061AA"/>
						<stop  offset="0.8409" style="stop-color:#194C7C"/>
						<stop  offset="1" style="stop-color:#1F3A59"/>
					</radialGradient>
					<path id="XMLID_325_" class="st84" d="M48.9,261.9c0-0.8,0.7-1.5,1.6-1.5c0.9,0,1.6,0.7,1.6,1.5c0,0.8-0.7,1.5-1.6,1.5
						C49.6,263.4,48.9,262.7,48.9,261.9z"/>
					
						<radialGradient id="XMLID_9_" cx="436.7787" cy="-370.2895" r="40.5888" gradientTransform="matrix(-1 -1.011184e-03 1.011184e-03 -1 504.0999 -76.4541)" gradientUnits="userSpaceOnUse">
						<stop  offset="0" style="stop-color:#FFFFFF"/>
						<stop  offset="8.938220e-03" style="stop-color:#FAFCFE"/>
						<stop  offset="7.323171e-02" style="stop-color:#D4E3F4"/>
						<stop  offset="0.1354" style="stop-color:#B5D0EB"/>
						<stop  offset="0.194" style="stop-color:#9CC3E4"/>
						<stop  offset="0.2478" style="stop-color:#8DBBE0"/>
						<stop  offset="0.2921" style="stop-color:#87B8DF"/>
						<stop  offset="0.6461" style="stop-color:#0061AA"/>
						<stop  offset="0.8409" style="stop-color:#194C7C"/>
						<stop  offset="1" style="stop-color:#1F3A59"/>
					</radialGradient>
					<path id="XMLID_324_" class="st85" d="M59.3,281c0-0.8,0.7-1.5,1.6-1.5c0.9,0,1.6,0.7,1.6,1.5c0,0.8-0.7,1.5-1.6,1.5
						C60,282.5,59.3,281.8,59.3,281z"/>
				</g>
			</g>
		</g>
		<g class="st86">
			<g id="XMLID_311_">
				
					<radialGradient id="XMLID_10_" cx="436.1467" cy="-369.4151" r="35.5778" gradientTransform="matrix(-1 -1.011184e-03 1.011184e-03 -1 504.0999 -76.4541)" gradientUnits="userSpaceOnUse">
					<stop  offset="0" style="stop-color:#FFFFFF"/>
					<stop  offset="1.100086e-02" style="stop-color:#FAFCFE"/>
					<stop  offset="9.013116e-02" style="stop-color:#D4E3F4"/>
					<stop  offset="0.1666" style="stop-color:#B5D0EB"/>
					<stop  offset="0.2388" style="stop-color:#9CC3E4"/>
					<stop  offset="0.305" style="stop-color:#8DBBE0"/>
					<stop  offset="0.3596" style="stop-color:#87B8DF"/>
					<stop  offset="0.8539" style="stop-color:#0061AA"/>
					<stop  offset="0.8979" style="stop-color:#164F84"/>
					<stop  offset="0.9977" style="stop-color:#172133"/>
					<stop  offset="1" style="stop-color:#172031"/>
				</radialGradient>
				<path id="XMLID_321_" class="st87" d="M46,260.1c0-0.8,0.7-1.5,1.6-1.5c0.9,0,1.6,0.7,1.6,1.5c0,0.8-0.7,1.5-1.6,1.5
					C46.7,261.6,46,260.9,46,260.1z"/>
				<g id="XMLID_312_">
					<g id="XMLID_318_">
						
							<radialGradient id="XMLID_11_" cx="436.1467" cy="-369.4151" r="35.5778" gradientTransform="matrix(-1 -1.011184e-03 1.011184e-03 -1 504.0999 -76.4541)" gradientUnits="userSpaceOnUse">
							<stop  offset="0" style="stop-color:#FFFFFF"/>
							<stop  offset="1.100086e-02" style="stop-color:#FAFCFE"/>
							<stop  offset="9.013116e-02" style="stop-color:#D4E3F4"/>
							<stop  offset="0.1666" style="stop-color:#B5D0EB"/>
							<stop  offset="0.2388" style="stop-color:#9CC3E4"/>
							<stop  offset="0.305" style="stop-color:#8DBBE0"/>
							<stop  offset="0.3596" style="stop-color:#87B8DF"/>
							<stop  offset="0.8539" style="stop-color:#0061AA"/>
							<stop  offset="0.8979" style="stop-color:#164F84"/>
							<stop  offset="0.9977" style="stop-color:#172133"/>
							<stop  offset="1" style="stop-color:#172031"/>
						</radialGradient>
						<path id="XMLID_320_" class="st88" d="M50.3,292.4"/>
						
							<radialGradient id="XMLID_12_" cx="436.1467" cy="-369.4151" r="35.5778" gradientTransform="matrix(-1 -1.011184e-03 1.011184e-03 -1 504.0999 -76.4541)" gradientUnits="userSpaceOnUse">
							<stop  offset="0" style="stop-color:#FFFFFF"/>
							<stop  offset="1.100086e-02" style="stop-color:#FAFCFE"/>
							<stop  offset="9.013116e-02" style="stop-color:#D4E3F4"/>
							<stop  offset="0.1666" style="stop-color:#B5D0EB"/>
							<stop  offset="0.2388" style="stop-color:#9CC3E4"/>
							<stop  offset="0.305" style="stop-color:#8DBBE0"/>
							<stop  offset="0.3596" style="stop-color:#87B8DF"/>
							<stop  offset="0.8539" style="stop-color:#0061AA"/>
							<stop  offset="0.8979" style="stop-color:#164F84"/>
							<stop  offset="0.9977" style="stop-color:#172133"/>
							<stop  offset="1" style="stop-color:#172031"/>
						</radialGradient>
						<path id="XMLID_319_" class="st89" d="M84.1,297.5l-36.8,0c-1.5,0-2.7-1.1-2.7-2.5l0-35.1c0-1.4,1.2-2.5,2.7-2.5l1.2,0
							c1.5,0,2.7,1.1,2.7,2.5l0,29.1c0,1.4,1.2,2.5,2.7,2.5l23.8,0c1.5,0,2.7-1.1,2.7-2.5l0-22.3c0-1.4-1.2-2.5-2.7-2.5l-13,0
							c-1.5,0-2.7,1.1-2.7,2.5l0,14.2c0,1.4-1.6,2.5-3.1,2.5l-0.4,0c-1.5,0-2.7-1.1-2.7-2.5l0-20.6c0-1.4,1.2-2.8,2.7-2.8l25.7,0
							c1.5,0,2.7,1.1,2.7,2.5l0,35.1C86.8,296.4,85.5,297.5,84.1,297.5z"/>
					</g>
					
						<radialGradient id="XMLID_13_" cx="436.1467" cy="-369.4151" r="35.5778" gradientTransform="matrix(-1 -1.011184e-03 1.011184e-03 -1 504.0999 -76.4541)" gradientUnits="userSpaceOnUse">
						<stop  offset="0" style="stop-color:#FFFFFF"/>
						<stop  offset="1.100086e-02" style="stop-color:#FAFCFE"/>
						<stop  offset="9.013116e-02" style="stop-color:#D4E3F4"/>
						<stop  offset="0.1666" style="stop-color:#B5D0EB"/>
						<stop  offset="0.2388" style="stop-color:#9CC3E4"/>
						<stop  offset="0.305" style="stop-color:#8DBBE0"/>
						<stop  offset="0.3596" style="stop-color:#87B8DF"/>
						<stop  offset="0.8539" style="stop-color:#0061AA"/>
						<stop  offset="0.8979" style="stop-color:#164F84"/>
						<stop  offset="0.9977" style="stop-color:#172133"/>
						<stop  offset="1" style="stop-color:#172031"/>
					</radialGradient>
					<path id="XMLID_317_" class="st90" d="M52.6,293.5"/>
					
						<radialGradient id="XMLID_14_" cx="436.1467" cy="-369.4151" r="35.5778" gradientTransform="matrix(-1 -1.011184e-03 1.011184e-03 -1 504.0999 -76.4541)" gradientUnits="userSpaceOnUse">
						<stop  offset="0" style="stop-color:#FFFFFF"/>
						<stop  offset="1.100086e-02" style="stop-color:#FAFCFE"/>
						<stop  offset="9.013116e-02" style="stop-color:#D4E3F4"/>
						<stop  offset="0.1666" style="stop-color:#B5D0EB"/>
						<stop  offset="0.2388" style="stop-color:#9CC3E4"/>
						<stop  offset="0.305" style="stop-color:#8DBBE0"/>
						<stop  offset="0.3596" style="stop-color:#87B8DF"/>
						<stop  offset="0.8539" style="stop-color:#0061AA"/>
						<stop  offset="0.8979" style="stop-color:#164F84"/>
						<stop  offset="0.9977" style="stop-color:#172133"/>
						<stop  offset="1" style="stop-color:#172031"/>
					</radialGradient>
					<path id="XMLID_316_" class="st91" d="M57,279.9c0-0.8,0.7-1.5,1.6-1.5c0.9,0,1.6,0.7,1.6,1.5c0,0.8-0.7,1.5-1.6,1.5
						C57.7,281.3,57,280.7,57,279.9z"/>
					
						<radialGradient id="XMLID_15_" cx="436.1467" cy="-369.4151" r="35.5778" gradientTransform="matrix(-1 -1.011184e-03 1.011184e-03 -1 504.0999 -76.4541)" gradientUnits="userSpaceOnUse">
						<stop  offset="0" style="stop-color:#FFFFFF"/>
						<stop  offset="1.100086e-02" style="stop-color:#FAFCFE"/>
						<stop  offset="9.013116e-02" style="stop-color:#D4E3F4"/>
						<stop  offset="0.1666" style="stop-color:#B5D0EB"/>
						<stop  offset="0.2388" style="stop-color:#9CC3E4"/>
						<stop  offset="0.305" style="stop-color:#8DBBE0"/>
						<stop  offset="0.3596" style="stop-color:#87B8DF"/>
						<stop  offset="0.8539" style="stop-color:#0061AA"/>
						<stop  offset="0.8979" style="stop-color:#164F84"/>
						<stop  offset="0.9977" style="stop-color:#172133"/>
						<stop  offset="1" style="stop-color:#172031"/>
					</radialGradient>
					<path id="XMLID_315_" class="st92" d="M86.4,298.7l-36.8,0c-1.5,0-2.7-1.1-2.7-2.5l0-35.1c0-1.4,1.2-2.5,2.7-2.5l1.2,0
						c1.5,0,2.7,1.1,2.7,2.5l0,29.1c0,1.4,1.2,2.5,2.7,2.5l23.8,0c1.5,0,2.7-1.1,2.7-2.5l0-22.3c0-1.4-1.2-2.5-2.7-2.5l-13,0
						c-1.5,0-2.7,1.1-2.7,2.5l0,14.2c0,1.4-1.6,2.5-3.1,2.5l-0.4,0c-1.5,0-2.7-1.1-2.7-2.5l0-20.6c0-1.4,1.2-2.8,2.7-2.8l25.7,0
						c1.5,0,2.7,1.1,2.7,2.5l0,35.1C89,297.6,87.8,298.7,86.4,298.7z"/>
					
						<radialGradient id="XMLID_16_" cx="436.1467" cy="-369.4151" r="35.5778" gradientTransform="matrix(-1 -1.011184e-03 1.011184e-03 -1 504.0999 -76.4541)" gradientUnits="userSpaceOnUse">
						<stop  offset="0" style="stop-color:#FFFFFF"/>
						<stop  offset="1.100086e-02" style="stop-color:#FAFCFE"/>
						<stop  offset="9.013116e-02" style="stop-color:#D4E3F4"/>
						<stop  offset="0.1666" style="stop-color:#B5D0EB"/>
						<stop  offset="0.2388" style="stop-color:#9CC3E4"/>
						<stop  offset="0.305" style="stop-color:#8DBBE0"/>
						<stop  offset="0.3596" style="stop-color:#87B8DF"/>
						<stop  offset="0.8539" style="stop-color:#0061AA"/>
						<stop  offset="0.8979" style="stop-color:#164F84"/>
						<stop  offset="0.9977" style="stop-color:#172133"/>
						<stop  offset="1" style="stop-color:#172031"/>
					</radialGradient>
					<path id="XMLID_314_" class="st93" d="M48.9,261.9c0-0.8,0.7-1.5,1.6-1.5c0.9,0,1.6,0.7,1.6,1.5c0,0.8-0.7,1.5-1.6,1.5
						C49.6,263.4,48.9,262.7,48.9,261.9z"/>
					
						<radialGradient id="XMLID_17_" cx="436.1467" cy="-369.4151" r="35.5778" gradientTransform="matrix(-1 -1.011184e-03 1.011184e-03 -1 504.0999 -76.4541)" gradientUnits="userSpaceOnUse">
						<stop  offset="0" style="stop-color:#FFFFFF"/>
						<stop  offset="1.100086e-02" style="stop-color:#FAFCFE"/>
						<stop  offset="9.013116e-02" style="stop-color:#D4E3F4"/>
						<stop  offset="0.1666" style="stop-color:#B5D0EB"/>
						<stop  offset="0.2388" style="stop-color:#9CC3E4"/>
						<stop  offset="0.305" style="stop-color:#8DBBE0"/>
						<stop  offset="0.3596" style="stop-color:#87B8DF"/>
						<stop  offset="0.8539" style="stop-color:#0061AA"/>
						<stop  offset="0.8979" style="stop-color:#164F84"/>
						<stop  offset="0.9977" style="stop-color:#172133"/>
						<stop  offset="1" style="stop-color:#172031"/>
					</radialGradient>
					<path id="XMLID_313_" class="st94" d="M59.3,281c0-0.8,0.7-1.5,1.6-1.5c0.9,0,1.6,0.7,1.6,1.5c0,0.8-0.7,1.5-1.6,1.5
						C60,282.5,59.3,281.8,59.3,281z"/>
				</g>
			</g>
		</g>
		<g class="st95">
			<g id="XMLID_300_">
				
					<radialGradient id="XMLID_18_" cx="436.7787" cy="-366.7798" r="36.2268" fx="400.5588" fy="-367.4868" gradientTransform="matrix(-1 -1.011184e-03 1.011184e-03 -1 504.0999 -76.4541)" gradientUnits="userSpaceOnUse">
					<stop  offset="0" style="stop-color:#FFFFFF"/>
					<stop  offset="1.736077e-02" style="stop-color:#FAFCFE"/>
					<stop  offset="0.1422" style="stop-color:#D4E3F4"/>
					<stop  offset="0.263" style="stop-color:#B5D0EB"/>
					<stop  offset="0.3769" style="stop-color:#9CC3E4"/>
					<stop  offset="0.4813" style="stop-color:#8DBBE0"/>
					<stop  offset="0.5674" style="stop-color:#87B8DF"/>
					<stop  offset="0.8539" style="stop-color:#0061AA"/>
					<stop  offset="0.8979" style="stop-color:#164F84"/>
					<stop  offset="0.9977" style="stop-color:#172133"/>
					<stop  offset="1" style="stop-color:#172031"/>
				</radialGradient>
				<path id="XMLID_310_" class="st96" d="M46,260.1c0-0.8,0.7-1.5,1.6-1.5c0.9,0,1.6,0.7,1.6,1.5c0,0.8-0.7,1.5-1.6,1.5
					C46.7,261.6,46,260.9,46,260.1z"/>
				<g id="XMLID_301_">
					<g id="XMLID_307_">
						
							<radialGradient id="XMLID_19_" cx="436.7787" cy="-366.7798" r="36.2268" fx="400.5588" fy="-367.4868" gradientTransform="matrix(-1 -1.011184e-03 1.011184e-03 -1 504.0999 -76.4541)" gradientUnits="userSpaceOnUse">
							<stop  offset="0" style="stop-color:#FFFFFF"/>
							<stop  offset="1.736077e-02" style="stop-color:#FAFCFE"/>
							<stop  offset="0.1422" style="stop-color:#D4E3F4"/>
							<stop  offset="0.263" style="stop-color:#B5D0EB"/>
							<stop  offset="0.3769" style="stop-color:#9CC3E4"/>
							<stop  offset="0.4813" style="stop-color:#8DBBE0"/>
							<stop  offset="0.5674" style="stop-color:#87B8DF"/>
							<stop  offset="0.8539" style="stop-color:#0061AA"/>
							<stop  offset="0.8979" style="stop-color:#164F84"/>
							<stop  offset="0.9977" style="stop-color:#172133"/>
							<stop  offset="1" style="stop-color:#172031"/>
						</radialGradient>
						<path id="XMLID_309_" class="st97" d="M50.3,292.4"/>
						
							<radialGradient id="XMLID_20_" cx="436.7787" cy="-366.7798" r="36.2268" fx="400.5588" fy="-367.4868" gradientTransform="matrix(-1 -1.011184e-03 1.011184e-03 -1 504.0999 -76.4541)" gradientUnits="userSpaceOnUse">
							<stop  offset="0" style="stop-color:#FFFFFF"/>
							<stop  offset="1.736077e-02" style="stop-color:#FAFCFE"/>
							<stop  offset="0.1422" style="stop-color:#D4E3F4"/>
							<stop  offset="0.263" style="stop-color:#B5D0EB"/>
							<stop  offset="0.3769" style="stop-color:#9CC3E4"/>
							<stop  offset="0.4813" style="stop-color:#8DBBE0"/>
							<stop  offset="0.5674" style="stop-color:#87B8DF"/>
							<stop  offset="0.8539" style="stop-color:#0061AA"/>
							<stop  offset="0.8979" style="stop-color:#164F84"/>
							<stop  offset="0.9977" style="stop-color:#172133"/>
							<stop  offset="1" style="stop-color:#172031"/>
						</radialGradient>
						<path id="XMLID_308_" class="st98" d="M84.1,297.5l-36.8,0c-1.5,0-2.7-1.1-2.7-2.5l0-35.1c0-1.4,1.2-2.5,2.7-2.5l1.2,0
							c1.5,0,2.7,1.1,2.7,2.5l0,29.1c0,1.4,1.2,2.5,2.7,2.5l23.8,0c1.5,0,2.7-1.1,2.7-2.5l0-22.3c0-1.4-1.2-2.5-2.7-2.5l-13,0
							c-1.5,0-2.7,1.1-2.7,2.5l0,14.2c0,1.4-1.6,2.5-3.1,2.5l-0.4,0c-1.5,0-2.7-1.1-2.7-2.5l0-20.6c0-1.4,1.2-2.8,2.7-2.8l25.7,0
							c1.5,0,2.7,1.1,2.7,2.5l0,35.1C86.8,296.4,85.5,297.5,84.1,297.5z"/>
					</g>
					
						<radialGradient id="XMLID_21_" cx="436.7787" cy="-366.7798" r="36.2268" fx="400.5588" fy="-367.4868" gradientTransform="matrix(-1 -1.011184e-03 1.011184e-03 -1 504.0999 -76.4541)" gradientUnits="userSpaceOnUse">
						<stop  offset="0" style="stop-color:#FFFFFF"/>
						<stop  offset="1.736077e-02" style="stop-color:#FAFCFE"/>
						<stop  offset="0.1422" style="stop-color:#D4E3F4"/>
						<stop  offset="0.263" style="stop-color:#B5D0EB"/>
						<stop  offset="0.3769" style="stop-color:#9CC3E4"/>
						<stop  offset="0.4813" style="stop-color:#8DBBE0"/>
						<stop  offset="0.5674" style="stop-color:#87B8DF"/>
						<stop  offset="0.8539" style="stop-color:#0061AA"/>
						<stop  offset="0.8979" style="stop-color:#164F84"/>
						<stop  offset="0.9977" style="stop-color:#172133"/>
						<stop  offset="1" style="stop-color:#172031"/>
					</radialGradient>
					<path id="XMLID_306_" class="st99" d="M52.6,293.5"/>
					
						<radialGradient id="XMLID_22_" cx="436.7787" cy="-366.7798" r="36.2268" fx="400.5588" fy="-367.4868" gradientTransform="matrix(-1 -1.011184e-03 1.011184e-03 -1 504.0999 -76.4541)" gradientUnits="userSpaceOnUse">
						<stop  offset="0" style="stop-color:#FFFFFF"/>
						<stop  offset="1.736077e-02" style="stop-color:#FAFCFE"/>
						<stop  offset="0.1422" style="stop-color:#D4E3F4"/>
						<stop  offset="0.263" style="stop-color:#B5D0EB"/>
						<stop  offset="0.3769" style="stop-color:#9CC3E4"/>
						<stop  offset="0.4813" style="stop-color:#8DBBE0"/>
						<stop  offset="0.5674" style="stop-color:#87B8DF"/>
						<stop  offset="0.8539" style="stop-color:#0061AA"/>
						<stop  offset="0.8979" style="stop-color:#164F84"/>
						<stop  offset="0.9977" style="stop-color:#172133"/>
						<stop  offset="1" style="stop-color:#172031"/>
					</radialGradient>
					<path id="XMLID_305_" class="st100" d="M57,279.9c0-0.8,0.7-1.5,1.6-1.5c0.9,0,1.6,0.7,1.6,1.5c0,0.8-0.7,1.5-1.6,1.5
						C57.7,281.3,57,280.7,57,279.9z"/>
					
						<radialGradient id="XMLID_23_" cx="436.7787" cy="-366.7798" r="36.2268" fx="400.5588" fy="-367.4868" gradientTransform="matrix(-1 -1.011184e-03 1.011184e-03 -1 504.0999 -76.4541)" gradientUnits="userSpaceOnUse">
						<stop  offset="0" style="stop-color:#FFFFFF"/>
						<stop  offset="1.736077e-02" style="stop-color:#FAFCFE"/>
						<stop  offset="0.1422" style="stop-color:#D4E3F4"/>
						<stop  offset="0.263" style="stop-color:#B5D0EB"/>
						<stop  offset="0.3769" style="stop-color:#9CC3E4"/>
						<stop  offset="0.4813" style="stop-color:#8DBBE0"/>
						<stop  offset="0.5674" style="stop-color:#87B8DF"/>
						<stop  offset="0.8539" style="stop-color:#0061AA"/>
						<stop  offset="0.8979" style="stop-color:#164F84"/>
						<stop  offset="0.9977" style="stop-color:#172133"/>
						<stop  offset="1" style="stop-color:#172031"/>
					</radialGradient>
					<path id="XMLID_304_" class="st101" d="M86.4,298.7l-36.8,0c-1.5,0-2.7-1.1-2.7-2.5l0-35.1c0-1.4,1.2-2.5,2.7-2.5l1.2,0
						c1.5,0,2.7,1.1,2.7,2.5l0,29.1c0,1.4,1.2,2.5,2.7,2.5l23.8,0c1.5,0,2.7-1.1,2.7-2.5l0-22.3c0-1.4-1.2-2.5-2.7-2.5l-13,0
						c-1.5,0-2.7,1.1-2.7,2.5l0,14.2c0,1.4-1.6,2.5-3.1,2.5l-0.4,0c-1.5,0-2.7-1.1-2.7-2.5l0-20.6c0-1.4,1.2-2.8,2.7-2.8l25.7,0
						c1.5,0,2.7,1.1,2.7,2.5l0,35.1C89,297.6,87.8,298.7,86.4,298.7z"/>
					
						<radialGradient id="XMLID_24_" cx="436.7787" cy="-366.7798" r="36.2268" fx="400.5588" fy="-367.4868" gradientTransform="matrix(-1 -1.011184e-03 1.011184e-03 -1 504.0999 -76.4541)" gradientUnits="userSpaceOnUse">
						<stop  offset="0" style="stop-color:#FFFFFF"/>
						<stop  offset="1.736077e-02" style="stop-color:#FAFCFE"/>
						<stop  offset="0.1422" style="stop-color:#D4E3F4"/>
						<stop  offset="0.263" style="stop-color:#B5D0EB"/>
						<stop  offset="0.3769" style="stop-color:#9CC3E4"/>
						<stop  offset="0.4813" style="stop-color:#8DBBE0"/>
						<stop  offset="0.5674" style="stop-color:#87B8DF"/>
						<stop  offset="0.8539" style="stop-color:#0061AA"/>
						<stop  offset="0.8979" style="stop-color:#164F84"/>
						<stop  offset="0.9977" style="stop-color:#172133"/>
						<stop  offset="1" style="stop-color:#172031"/>
					</radialGradient>
					<path id="XMLID_303_" class="st102" d="M48.9,261.9c0-0.8,0.7-1.5,1.6-1.5c0.9,0,1.6,0.7,1.6,1.5c0,0.8-0.7,1.5-1.6,1.5
						C49.6,263.4,48.9,262.7,48.9,261.9z"/>
					
						<radialGradient id="XMLID_25_" cx="436.7787" cy="-366.7798" r="36.2268" fx="400.5588" fy="-367.4868" gradientTransform="matrix(-1 -1.011184e-03 1.011184e-03 -1 504.0999 -76.4541)" gradientUnits="userSpaceOnUse">
						<stop  offset="0" style="stop-color:#FFFFFF"/>
						<stop  offset="1.736077e-02" style="stop-color:#FAFCFE"/>
						<stop  offset="0.1422" style="stop-color:#D4E3F4"/>
						<stop  offset="0.263" style="stop-color:#B5D0EB"/>
						<stop  offset="0.3769" style="stop-color:#9CC3E4"/>
						<stop  offset="0.4813" style="stop-color:#8DBBE0"/>
						<stop  offset="0.5674" style="stop-color:#87B8DF"/>
						<stop  offset="0.8539" style="stop-color:#0061AA"/>
						<stop  offset="0.8979" style="stop-color:#164F84"/>
						<stop  offset="0.9977" style="stop-color:#172133"/>
						<stop  offset="1" style="stop-color:#172031"/>
					</radialGradient>
					<path id="XMLID_302_" class="st103" d="M59.3,281c0-0.8,0.7-1.5,1.6-1.5c0.9,0,1.6,0.7,1.6,1.5c0,0.8-0.7,1.5-1.6,1.5
						C60,282.5,59.3,281.8,59.3,281z"/>
				</g>
			</g>
		</g>
		<g>
			<defs>
				<filter id="Adobe_OpacityMaskFilter" filterUnits="userSpaceOnUse" x="44.5" y="257.4" width="44.5" height="41.3">
					<feFlood  style="flood-color:white;flood-opacity:1" result="back"/>
					<feBlend  in="SourceGraphic" in2="back" mode="normal"/>
				</filter>
			</defs>
			<mask maskUnits="userSpaceOnUse" x="44.5" y="257.4" width="44.5" height="41.3" id="SVGID_1_">
				<g class="st104">
					
						<image style="overflow:visible;" width="203" height="189" xlink:href="29E62BCE.jpg"  transform="matrix(0.24 0 0 0.24 42.48 255.32)">
					</image>
				</g>
			</mask>
			<g class="st105">
				<g id="XMLID_289_">
					
						<radialGradient id="XMLID_26_" cx="436.4493" cy="-369.7286" r="20.6829" gradientTransform="matrix(-1 -1.011184e-03 1.011184e-03 -1 504.0999 -76.4541)" gradientUnits="userSpaceOnUse">
						<stop  offset="0" style="stop-color:#FFFFFF"/>
						<stop  offset="1" style="stop-color:#CCD3E4"/>
					</radialGradient>
					<path id="XMLID_299_" class="st106" d="M46,260.1c0-0.8,0.7-1.5,1.6-1.5c0.9,0,1.6,0.7,1.6,1.5c0,0.8-0.7,1.5-1.6,1.5
						C46.7,261.6,46,260.9,46,260.1z"/>
					<g id="XMLID_290_">
						<g id="XMLID_296_">
							
								<radialGradient id="XMLID_27_" cx="436.4493" cy="-369.7286" r="20.6829" gradientTransform="matrix(-1 -1.011184e-03 1.011184e-03 -1 504.0999 -76.4541)" gradientUnits="userSpaceOnUse">
								<stop  offset="0" style="stop-color:#FFFFFF"/>
								<stop  offset="1" style="stop-color:#CCD3E4"/>
							</radialGradient>
							<path id="XMLID_298_" class="st107" d="M50.3,292.4"/>
							
								<radialGradient id="XMLID_28_" cx="436.4493" cy="-369.7286" r="20.6829" gradientTransform="matrix(-1 -1.011184e-03 1.011184e-03 -1 504.0999 -76.4541)" gradientUnits="userSpaceOnUse">
								<stop  offset="0" style="stop-color:#FFFFFF"/>
								<stop  offset="1" style="stop-color:#CCD3E4"/>
							</radialGradient>
							<path id="XMLID_297_" class="st108" d="M84.1,297.5l-36.8,0c-1.5,0-2.7-1.1-2.7-2.5l0-35.1c0-1.4,1.2-2.5,2.7-2.5l1.2,0
								c1.5,0,2.7,1.1,2.7,2.5l0,29.1c0,1.4,1.2,2.5,2.7,2.5l23.8,0c1.5,0,2.7-1.1,2.7-2.5l0-22.3c0-1.4-1.2-2.5-2.7-2.5l-13,0
								c-1.5,0-2.7,1.1-2.7,2.5l0,14.2c0,1.4-1.6,2.5-3.1,2.5l-0.4,0c-1.5,0-2.7-1.1-2.7-2.5l0-20.6c0-1.4,1.2-2.8,2.7-2.8l25.7,0
								c1.5,0,2.7,1.1,2.7,2.5l0,35.1C86.8,296.4,85.5,297.5,84.1,297.5z"/>
						</g>
						
							<radialGradient id="XMLID_29_" cx="436.4493" cy="-369.7286" r="20.6829" gradientTransform="matrix(-1 -1.011184e-03 1.011184e-03 -1 504.0999 -76.4541)" gradientUnits="userSpaceOnUse">
							<stop  offset="0" style="stop-color:#FFFFFF"/>
							<stop  offset="1" style="stop-color:#CCD3E4"/>
						</radialGradient>
						<path id="XMLID_295_" class="st109" d="M52.6,293.5"/>
						
							<radialGradient id="XMLID_30_" cx="436.4493" cy="-369.7286" r="20.6829" gradientTransform="matrix(-1 -1.011184e-03 1.011184e-03 -1 504.0999 -76.4541)" gradientUnits="userSpaceOnUse">
							<stop  offset="0" style="stop-color:#FFFFFF"/>
							<stop  offset="1" style="stop-color:#CCD3E4"/>
						</radialGradient>
						<path id="XMLID_294_" class="st110" d="M57,279.9c0-0.8,0.7-1.5,1.6-1.5c0.9,0,1.6,0.7,1.6,1.5c0,0.8-0.7,1.5-1.6,1.5
							C57.7,281.3,57,280.7,57,279.9z"/>
						
							<radialGradient id="XMLID_31_" cx="436.4493" cy="-369.7286" r="20.6829" gradientTransform="matrix(-1 -1.011184e-03 1.011184e-03 -1 504.0999 -76.4541)" gradientUnits="userSpaceOnUse">
							<stop  offset="0" style="stop-color:#FFFFFF"/>
							<stop  offset="1" style="stop-color:#CCD3E4"/>
						</radialGradient>
						<path id="XMLID_293_" class="st111" d="M86.4,298.7l-36.8,0c-1.5,0-2.7-1.1-2.7-2.5l0-35.1c0-1.4,1.2-2.5,2.7-2.5l1.2,0
							c1.5,0,2.7,1.1,2.7,2.5l0,29.1c0,1.4,1.2,2.5,2.7,2.5l23.8,0c1.5,0,2.7-1.1,2.7-2.5l0-22.3c0-1.4-1.2-2.5-2.7-2.5l-13,0
							c-1.5,0-2.7,1.1-2.7,2.5l0,14.2c0,1.4-1.6,2.5-3.1,2.5l-0.4,0c-1.5,0-2.7-1.1-2.7-2.5l0-20.6c0-1.4,1.2-2.8,2.7-2.8l25.7,0
							c1.5,0,2.7,1.1,2.7,2.5l0,35.1C89,297.6,87.8,298.7,86.4,298.7z"/>
						
							<radialGradient id="XMLID_32_" cx="436.4493" cy="-369.7286" r="20.6829" gradientTransform="matrix(-1 -1.011184e-03 1.011184e-03 -1 504.0999 -76.4541)" gradientUnits="userSpaceOnUse">
							<stop  offset="0" style="stop-color:#FFFFFF"/>
							<stop  offset="1" style="stop-color:#CCD3E4"/>
						</radialGradient>
						<path id="XMLID_292_" class="st112" d="M48.9,261.9c0-0.8,0.7-1.5,1.6-1.5c0.9,0,1.6,0.7,1.6,1.5c0,0.8-0.7,1.5-1.6,1.5
							C49.6,263.4,48.9,262.7,48.9,261.9z"/>
						
							<radialGradient id="XMLID_33_" cx="436.4493" cy="-369.7286" r="20.6829" gradientTransform="matrix(-1 -1.011184e-03 1.011184e-03 -1 504.0999 -76.4541)" gradientUnits="userSpaceOnUse">
							<stop  offset="0" style="stop-color:#FFFFFF"/>
							<stop  offset="1" style="stop-color:#CCD3E4"/>
						</radialGradient>
						<path id="XMLID_291_" class="st113" d="M59.3,281c0-0.8,0.7-1.5,1.6-1.5c0.9,0,1.6,0.7,1.6,1.5c0,0.8-0.7,1.5-1.6,1.5
							C60,282.5,59.3,281.8,59.3,281z"/>
					</g>
				</g>
			</g>
		</g>
		<g class="st114">
			<defs>
				<filter id="Adobe_OpacityMaskFilter_1_" filterUnits="userSpaceOnUse" x="44.5" y="257.4" width="44.5" height="41.3">
					<feFlood  style="flood-color:white;flood-opacity:1" result="back"/>
					<feBlend  in="SourceGraphic" in2="back" mode="normal"/>
				</filter>
			</defs>
			<mask maskUnits="userSpaceOnUse" x="44.5" y="257.4" width="44.5" height="41.3" id="SVGID_2_">
				<g class="st115">
					
						<image style="overflow:visible;" width="203" height="189" xlink:href="29E62BD2.jpg"  transform="matrix(0.24 0 0 0.24 42.48 255.32)">
					</image>
				</g>
			</mask>
			<g class="st116">
				<g id="XMLID_278_">
					
						<radialGradient id="XMLID_34_" cx="437.4196" cy="-342.8305" r="20.5771" gradientTransform="matrix(-1 -1.011184e-03 1.011184e-03 -1 504.0999 -76.4541)" gradientUnits="userSpaceOnUse">
						<stop  offset="0" style="stop-color:#FFFFFF"/>
						<stop  offset="1" style="stop-color:#87B8DF"/>
					</radialGradient>
					<path id="XMLID_288_" class="st117" d="M46,260.1c0-0.8,0.7-1.5,1.6-1.5c0.9,0,1.6,0.7,1.6,1.5c0,0.8-0.7,1.5-1.6,1.5
						C46.7,261.6,46,260.9,46,260.1z"/>
					<g id="XMLID_279_">
						<g id="XMLID_285_">
							
								<radialGradient id="XMLID_35_" cx="437.4196" cy="-342.8305" r="20.5771" gradientTransform="matrix(-1 -1.011184e-03 1.011184e-03 -1 504.0999 -76.4541)" gradientUnits="userSpaceOnUse">
								<stop  offset="0" style="stop-color:#FFFFFF"/>
								<stop  offset="1" style="stop-color:#87B8DF"/>
							</radialGradient>
							<path id="XMLID_287_" class="st118" d="M50.3,292.4"/>
							
								<radialGradient id="XMLID_36_" cx="437.4196" cy="-342.8305" r="20.5771" gradientTransform="matrix(-1 -1.011184e-03 1.011184e-03 -1 504.0999 -76.4541)" gradientUnits="userSpaceOnUse">
								<stop  offset="0" style="stop-color:#FFFFFF"/>
								<stop  offset="1" style="stop-color:#87B8DF"/>
							</radialGradient>
							<path id="XMLID_286_" class="st119" d="M84.1,297.5l-36.8,0c-1.5,0-2.7-1.1-2.7-2.5l0-35.1c0-1.4,1.2-2.5,2.7-2.5l1.2,0
								c1.5,0,2.7,1.1,2.7,2.5l0,29.1c0,1.4,1.2,2.5,2.7,2.5l23.8,0c1.5,0,2.7-1.1,2.7-2.5l0-22.3c0-1.4-1.2-2.5-2.7-2.5l-13,0
								c-1.5,0-2.7,1.1-2.7,2.5l0,14.2c0,1.4-1.6,2.5-3.1,2.5l-0.4,0c-1.5,0-2.7-1.1-2.7-2.5l0-20.6c0-1.4,1.2-2.8,2.7-2.8l25.7,0
								c1.5,0,2.7,1.1,2.7,2.5l0,35.1C86.8,296.4,85.5,297.5,84.1,297.5z"/>
						</g>
						
							<radialGradient id="XMLID_37_" cx="437.4196" cy="-342.8305" r="20.5771" gradientTransform="matrix(-1 -1.011184e-03 1.011184e-03 -1 504.0999 -76.4541)" gradientUnits="userSpaceOnUse">
							<stop  offset="0" style="stop-color:#FFFFFF"/>
							<stop  offset="1" style="stop-color:#87B8DF"/>
						</radialGradient>
						<path id="XMLID_284_" class="st120" d="M52.6,293.5"/>
						
							<radialGradient id="XMLID_38_" cx="437.4196" cy="-342.8305" r="20.5771" gradientTransform="matrix(-1 -1.011184e-03 1.011184e-03 -1 504.0999 -76.4541)" gradientUnits="userSpaceOnUse">
							<stop  offset="0" style="stop-color:#FFFFFF"/>
							<stop  offset="1" style="stop-color:#87B8DF"/>
						</radialGradient>
						<path id="XMLID_283_" class="st121" d="M57,279.9c0-0.8,0.7-1.5,1.6-1.5c0.9,0,1.6,0.7,1.6,1.5c0,0.8-0.7,1.5-1.6,1.5
							C57.7,281.3,57,280.7,57,279.9z"/>
						
							<radialGradient id="XMLID_39_" cx="437.4196" cy="-342.8305" r="20.5771" gradientTransform="matrix(-1 -1.011184e-03 1.011184e-03 -1 504.0999 -76.4541)" gradientUnits="userSpaceOnUse">
							<stop  offset="0" style="stop-color:#FFFFFF"/>
							<stop  offset="1" style="stop-color:#87B8DF"/>
						</radialGradient>
						<path id="XMLID_282_" class="st122" d="M86.4,298.7l-36.8,0c-1.5,0-2.7-1.1-2.7-2.5l0-35.1c0-1.4,1.2-2.5,2.7-2.5l1.2,0
							c1.5,0,2.7,1.1,2.7,2.5l0,29.1c0,1.4,1.2,2.5,2.7,2.5l23.8,0c1.5,0,2.7-1.1,2.7-2.5l0-22.3c0-1.4-1.2-2.5-2.7-2.5l-13,0
							c-1.5,0-2.7,1.1-2.7,2.5l0,14.2c0,1.4-1.6,2.5-3.1,2.5l-0.4,0c-1.5,0-2.7-1.1-2.7-2.5l0-20.6c0-1.4,1.2-2.8,2.7-2.8l25.7,0
							c1.5,0,2.7,1.1,2.7,2.5l0,35.1C89,297.6,87.8,298.7,86.4,298.7z"/>
						
							<radialGradient id="XMLID_40_" cx="437.4196" cy="-342.8305" r="20.5771" gradientTransform="matrix(-1 -1.011184e-03 1.011184e-03 -1 504.0999 -76.4541)" gradientUnits="userSpaceOnUse">
							<stop  offset="0" style="stop-color:#FFFFFF"/>
							<stop  offset="1" style="stop-color:#87B8DF"/>
						</radialGradient>
						<path id="XMLID_281_" class="st123" d="M48.9,261.9c0-0.8,0.7-1.5,1.6-1.5c0.9,0,1.6,0.7,1.6,1.5c0,0.8-0.7,1.5-1.6,1.5
							C49.6,263.4,48.9,262.7,48.9,261.9z"/>
						
							<radialGradient id="XMLID_41_" cx="437.4196" cy="-342.8305" r="20.5771" gradientTransform="matrix(-1 -1.011184e-03 1.011184e-03 -1 504.0999 -76.4541)" gradientUnits="userSpaceOnUse">
							<stop  offset="0" style="stop-color:#FFFFFF"/>
							<stop  offset="1" style="stop-color:#87B8DF"/>
						</radialGradient>
						<path id="XMLID_280_" class="st124" d="M59.3,281c0-0.8,0.7-1.5,1.6-1.5c0.9,0,1.6,0.7,1.6,1.5c0,0.8-0.7,1.5-1.6,1.5
							C60,282.5,59.3,281.8,59.3,281z"/>
					</g>
				</g>
			</g>
		</g>
		<g>
			<g id="XMLID_267_">
				
					<ellipse id="XMLID_277_" transform="matrix(1.011184e-03 -1 1 1.011184e-03 -212.6053 307.4337)" class="st125" cx="47.6" cy="260.1" rx="1.5" ry="1.6"/>
				<g id="XMLID_268_">
					<g id="XMLID_274_" class="st126">
						<path id="XMLID_276_" class="st127" d="M50.3,292.4"/>
						<path id="XMLID_275_" class="st125" d="M84.1,297.5l-36.8,0c-1.5,0-2.7-1.1-2.7-2.5l0-35.1c0-1.4,1.2-2.5,2.7-2.5l1.2,0
							c1.5,0,2.7,1.1,2.7,2.5l0,29.1c0,1.4,1.2,2.5,2.7,2.5l23.8,0c1.5,0,2.7-1.1,2.7-2.5l0-22.3c0-1.4-1.2-2.5-2.7-2.5l-13,0
							c-1.5,0-2.7,1.1-2.7,2.5l0,14.2c0,1.4-1.6,2.5-3.1,2.5l-0.4,0c-1.5,0-2.7-1.1-2.7-2.5l0-20.6c0-1.4,1.2-2.8,2.7-2.8l25.7,0
							c1.5,0,2.7,1.1,2.7,2.5l0,35.1C86.8,296.4,85.5,297.5,84.1,297.5z"/>
					</g>
					<path id="XMLID_273_" class="st128" d="M52.6,293.5"/>
					
						<ellipse id="XMLID_272_" transform="matrix(1.011184e-03 -1 1 1.011184e-03 -221.3015 338.207)" class="st125" cx="58.6" cy="279.9" rx="1.5" ry="1.6"/>
					
						<linearGradient id="XMLID_42_" gradientUnits="userSpaceOnUse" x1="417.6803" y1="-355.5164" x2="459.9003" y2="-355.5164" gradientTransform="matrix(-1 -1.011184e-03 1.011184e-03 -1 507.0999 -76.4541)">
						<stop  offset="0.4769" style="stop-color:#47B48D;stop-opacity:0.91"/>
						<stop  offset="0.5887" style="stop-color:#3BB091;stop-opacity:0.9467"/>
						<stop  offset="0.7478" style="stop-color:#00A49A;stop-opacity:0.9989"/>
						<stop  offset="0.7513" style="stop-color:#00A49A"/>
					</linearGradient>
					<path id="XMLID_271_" class="st129" d="M86.4,298.7l-36.8,0c-1.5,0-2.7-1.1-2.7-2.5l0-35.1c0-1.4,1.2-2.5,2.7-2.5l1.2,0
						c1.5,0,2.7,1.1,2.7,2.5l0,29.1c0,1.4,1.2,2.5,2.7,2.5l23.8,0c1.5,0,2.7-1.1,2.7-2.5l0-22.3c0-1.4-1.2-2.5-2.7-2.5l-13,0
						c-1.5,0-2.7,1.1-2.7,2.5l0,14.2c0,1.4-1.6,2.5-3.1,2.5l-0.4,0c-1.5,0-2.7-1.1-2.7-2.5l0-20.6c0-1.4,1.2-2.8,2.7-2.8l25.7,0
						c1.5,0,2.7,1.1,2.7,2.5l0,35.1C89,297.6,87.8,298.7,86.4,298.7z"/>
					
						<ellipse id="XMLID_270_" transform="matrix(1.011184e-03 -1 1 1.011184e-03 -211.4847 312.1649)" class="Atardecer_x0020_2" cx="50.5" cy="261.9" rx="1.5" ry="1.6"/>
					
						<ellipse id="XMLID_269_" transform="matrix(1.011184e-03 -1 1 1.011184e-03 -220.1754 341.6519)" class="Atardecer_x0020_2" cx="60.9" cy="281" rx="1.5" ry="1.6"/>
				</g>
			</g>
		</g>
	</g>
</g>
</svg>
