<?xml version="1.0" encoding="utf-8"?>
<!-- Generator: Adobe Illustrator 23.0.0, SVG Export Plug-In . SVG Version: 6.00 Build 0)  -->
<svg version="1.0" id="Capa_1" xmlns="http://www.w3.org/2000/svg" xmlns:xlink="http://www.w3.org/1999/xlink" x="0px" y="0px"
	 viewBox="0 0 119 123" style="enable-background:new 0 0 119 123;" xml:space="preserve">
<style type="text/css">
	.st0{clip-path:url(#XMLID_2_);fill:#FFFFFF;}
	.st1{clip-path:url(#XMLID_2_);fill:#3A404F;}
	.st2{clip-path:url(#XMLID_2_);fill:#4F92BA;}
	
		.st3{clip-path:url(#XMLID_2_);fill:none;stroke:#3A404F;stroke-width:2.0194;stroke-linecap:round;stroke-linejoin:round;stroke-miterlimit:10;}
	.st4{clip-path:url(#XMLID_2_);}
	.st5{fill:url(#XMLID_3_);}
	.st6{clip-path:url(#XMLID_2_);fill:#AEA0CD;}
	
		.st7{clip-path:url(#XMLID_2_);fill:none;stroke:#3A404F;stroke-width:1.4613;stroke-linecap:round;stroke-linejoin:round;stroke-miterlimit:10;}
	.st8{fill:url(#XMLID_4_);}
</style>
<g id="XMLID_4667_">
	<g id="XMLID_4668_">
		<g id="XMLID_4669_">
			<defs>
				<path id="XMLID_4671_" d="M60.5,4.5C30.4,4.5,6,28.9,6,59c0,30.1,24.5,54.6,54.6,54.6s54.6-24.5,54.6-54.6
					C115.1,28.9,90.6,4.5,60.5,4.5z"/>
			</defs>
			<clipPath id="XMLID_2_">
				<use xlink:href="#XMLID_4671_"  style="overflow:visible;"/>
			</clipPath>
			<path id="XMLID_4718_" class="st0" d="M57.6,58.3c0,1.6-1.3,3-2.9,3h-0.2c-1.6,0-2.9-1.3-2.9-3v-5.4c0-1.6,1.3-3,2.9-3h0.2
				c1.6,0,2.9,1.3,2.9,3V58.3z"/>
			<path id="XMLID_4715_" class="st1" d="M54.6,62.5h-0.2c-2.3,0-4.2-1.9-4.2-4.2v-5.4c0-2.3,1.9-4.2,4.2-4.2h0.2
				c2.3,0,4.2,1.9,4.2,4.2v5.4C58.8,60.6,56.9,62.5,54.6,62.5z M54.4,51.2c-0.9,0-1.7,0.8-1.7,1.7v5.4c0,0.9,0.8,1.7,1.7,1.7h0.2
				c0.9,0,1.7-0.8,1.7-1.7v-5.4c0-0.9-0.8-1.7-1.7-1.7H54.4z"/>
			<path id="XMLID_4714_" class="st0" d="M17.8,102.9V86.2c0-3.3,3-5.9,6.7-5.9h29.3c3.7,0,6.7,2.6,6.7,5.9v30.9"/>
			<path id="XMLID_4713_" class="st1" d="M61.8,98.9h-2.5V86.2c0-2.6-2.4-4.7-5.4-4.7H24.5c-3,0-5.4,2.1-5.4,4.7v10.5h-2.5V86.2
				c0-4,3.6-7.2,7.9-7.2h29.3c4.4,0,7.9,3.2,7.9,7.2V98.9z"/>
			<path id="XMLID_4712_" class="st0" d="M54.1,61.3c0,8.3-6.7,14.9-14.9,14.9l0,0c-8.3,0-14.9-6.7-14.9-14.9v-12
				c0-8.3,6.7-14.9,14.9-14.9l0,0c8.3,0,14.9,6.7,14.9,14.9V61.3z"/>
			<path id="XMLID_4709_" class="st1" d="M39.2,77.5c-8.9,0-16.2-7.3-16.2-16.2v-12c0-8.9,7.3-16.2,16.2-16.2s16.2,7.3,16.2,16.2v12
				C55.4,70.3,48.1,77.5,39.2,77.5z M39.2,35.7c-7.5,0-13.7,6.1-13.7,13.7v12c0,7.5,6.1,13.7,13.7,13.7s13.7-6.1,13.7-13.7v-12
				C52.8,41.8,46.7,35.7,39.2,35.7z"/>
			<path id="XMLID_4708_" class="st2" d="M33.6,33.1c-2.5,0-4.7,1.3-6,3.3h-2.5c-3.1,0-5.6,2.6-5.6,5.7v20.7h4.8V50.5
				c0-2.2,0.9-3.3,3-3.3h2.3h19.2h3.6c4,0,7.2-4,7.2-8v-6H33.6z"/>
			<path id="XMLID_4706_" class="st3" d="M60.2,39.3c0,4.5-3.7,8.2-8.2,8.2H27.9c-1.4,0-2.5,1.1-2.5,2.5v12.9h-6.3V42.1
				c0-3.6,3-6.6,6.6-6.6h1.7c1.5-2,3.9-3.1,6.4-3.1h7.5"/>
			<path id="XMLID_4705_" class="st0" d="M24.2,50c-1.5,0.2-3.9,1.4-3.9,2.9v5.4c0,1.5,2.4,2.8,3.9,2.9V50z"/>
			<path id="XMLID_4702_" class="st1" d="M25.5,62.6l-1.4-0.1c-2.1-0.2-5-1.8-5-4.2v-5.4c0-2.3,3-4,5-4.2l1.4-0.1V62.6z M23,51.7
				c-0.8,0.4-1.4,0.9-1.4,1.2v5.4c0,0.3,0.6,0.9,1.4,1.2V51.7z"/>
			<rect id="XMLID_4701_" x="41.9" y="81.1" class="st1" width="2.5" height="6.9"/>
			<rect id="XMLID_4700_" x="36.8" y="81.1" class="st1" width="2.5" height="6.9"/>
			<path id="XMLID_4699_" class="st0" d="M60.4,118.4V98.2c0-3,2.7-5.4,6.1-5.4h26.8c3.4,0,6.1,2.4,6.1,5.4V115"/>
			<path id="XMLID_4698_" class="st1" d="M100.5,109.8h-2.3V98.2c0-2.3-2.2-4.3-5-4.3H66.5c-2.7,0-5,1.9-5,4.3v17.3h-2.3V98.2
				c0-3.6,3.3-6.6,7.3-6.6h26.8c4,0,7.3,2.9,7.3,6.6V109.8z"/>
			<rect id="XMLID_4697_" x="82.3" y="93.6" class="st1" width="2.3" height="6.3"/>
			<rect id="XMLID_4696_" x="77.8" y="93.6" class="st1" width="2.3" height="6.3"/>
			<g id="XMLID_4694_" class="st4">
				<linearGradient id="XMLID_3_" gradientUnits="userSpaceOnUse" x1="43.1627" y1="34.3412" x2="61.2174" y2="34.3412">
					<stop  offset="0" style="stop-color:#3F7FA2"/>
					<stop  offset="1" style="stop-color:#62BFB6"/>
				</linearGradient>
				<path id="XMLID_4695_" class="st5" d="M60.2,37.3c-0.6,0-1-0.5-1-1v-2.9h-15c-0.6,0-1-0.5-1-1c0-0.6,0.5-1,1-1h16
					c0.6,0,1,0.5,1,1v3.9C61.2,36.9,60.8,37.3,60.2,37.3z"/>
			</g>
			<circle id="XMLID_4693_" class="st0" cx="60.2" cy="36.3" r="0.7"/>
			<circle id="XMLID_4692_" class="st0" cx="44.2" cy="32.4" r="0.7"/>
			<path id="XMLID_4691_" class="st0" d="M94.2,75.7c0,1.2-1,2.1-2.1,2.1h-0.2c-1.2,0-2.1-1-2.1-2.1v-3.9c0-1.2,1-2.1,2.1-2.1h0.2
				c1.2,0,2.1,1,2.1,2.1V75.7z"/>
			<path id="XMLID_4688_" class="st1" d="M92.1,78.7h-0.2c-1.7,0-3-1.4-3-3v-3.9c0-1.7,1.4-3,3-3h0.2c1.7,0,3,1.4,3,3v3.9
				C95.1,77.3,93.7,78.7,92.1,78.7z M91.9,70.5c-0.7,0-1.2,0.5-1.2,1.2v3.9c0,0.7,0.5,1.2,1.2,1.2h0.2c0.7,0,1.2-0.5,1.2-1.2v-3.9
				c0-0.7-0.5-1.2-1.2-1.2H91.9z"/>
			<path id="XMLID_4687_" class="st0" d="M91.7,77.8c0,6-4.8,10.8-10.8,10.8l0,0c-6,0-10.8-4.8-10.8-10.8v-8.6
				c0-6,4.8-10.8,10.8-10.8l0,0c6,0,10.8,4.8,10.8,10.8V77.8z"/>
			<path id="XMLID_4684_" class="st1" d="M80.9,89.6c-6.5,0-11.7-5.3-11.7-11.7v-8.6c0-6.5,5.3-11.7,11.7-11.7s11.7,5.3,11.7,11.7
				v8.6C92.6,84.3,87.3,89.6,80.9,89.6z M80.9,59.3c-5.5,0-9.9,4.4-9.9,9.9v8.6c0,5.5,4.4,9.9,9.9,9.9s9.9-4.4,9.9-9.9v-8.6
				C90.8,63.7,86.3,59.3,80.9,59.3z"/>
			<path id="XMLID_4683_" class="st6" d="M76.9,57.4c-1.8,0-3.4,1-4.3,2.4h-1.8c-2.2,0-4,1.8-4,4.1v15h3.5V70c0-1.6,0.6-2.4,2.2-2.4
				H74h13.9h2.6c2.9,0,5.2-2.9,5.2-5.8v-4.4H76.9z"/>
			<path id="XMLID_4681_" class="st7" d="M96.1,61.9c0,3.3-2.7,5.9-5.9,5.9H72.7c-1,0-1.8,0.8-1.8,1.8v9.3h-4.5v-15
				c0-2.6,2.1-4.8,4.8-4.8h1.3c1.1-1.4,2.8-2.3,4.6-2.3h5.4"/>
			<path id="XMLID_4680_" class="st0" d="M70.1,69.6c-1.1,0.1-2.8,1-2.8,2.1v3.9c0,1.1,1.8,2,2.8,2.1V69.6z"/>
			<path id="XMLID_4677_" class="st1" d="M71,78.8l-1-0.1c-1.5-0.2-3.6-1.3-3.6-3v-3.9c0-1.7,2.2-2.9,3.6-3l1-0.1V78.8z M69.2,70.9
				c-0.6,0.3-1,0.7-1,0.9v3.9c0,0.2,0.4,0.6,1,0.9V70.9z"/>
			<g id="XMLID_4675_" class="st4">
				<linearGradient id="XMLID_4_" gradientUnits="userSpaceOnUse" x1="83.7854" y1="58.3111" x2="96.8503" y2="58.3111">
					<stop  offset="0" style="stop-color:#3F7FA2"/>
					<stop  offset="1" style="stop-color:#62BFB6"/>
				</linearGradient>
				<path id="XMLID_4676_" class="st8" d="M96.1,60.5c-0.4,0-0.7-0.3-0.7-0.7v-2.1H84.5c-0.4,0-0.7-0.3-0.7-0.7
					c0-0.4,0.3-0.7,0.7-0.7h11.6c0.4,0,0.7,0.3,0.7,0.7v2.8C96.9,60.1,96.5,60.5,96.1,60.5z"/>
			</g>
			<circle id="XMLID_4674_" class="st0" cx="96.1" cy="59.8" r="0.5"/>
			<circle id="XMLID_4673_" class="st0" cx="84.5" cy="56.9" r="0.5"/>
		</g>
	</g>
</g>
</svg>
